<mxfile host="app.diagrams.net" modified="2023-10-30T01:35:37.995Z" agent="Mozilla/5.0 (Windows NT 10.0; Win64; x64) AppleWebKit/537.36 (KHTML, like Gecko) Chrome/118.0.0.0 Safari/537.36" etag="hcM2L6tFPeUk0azyrSFw" version="22.0.8" type="device" pages="8">
  <diagram id="Xw6H64tZccxRrx7_GbMZ" name="Contexto">
    <mxGraphModel dx="1588" dy="912" grid="1" gridSize="10" guides="1" tooltips="1" connect="1" arrows="1" fold="1" page="1" pageScale="1" pageWidth="827" pageHeight="1169" math="0" shadow="0">
      <root>
        <mxCell id="0" />
        <mxCell id="1" parent="0" />
        <object placeholders="1" c4Name="Sistema de Servidor de Identidade" c4Type="ExecutionEnvironment" c4Application="Solução de Software" label="&lt;div style=&quot;text-align: left; font-size: 13px;&quot;&gt;%c4Name%&lt;/div&gt;&lt;div style=&quot;text-align: left; font-size: 13px;&quot;&gt;[%c4Application%]&lt;/div&gt;" id="aevcoQy2A1wj3x0GnJCE-1">
          <mxCell style="rounded=1;whiteSpace=wrap;html=1;labelBackgroundColor=none;fillColor=#ffffff;fontColor=#000000;align=left;arcSize=5;strokeColor=#000000;verticalAlign=bottom;metaEdit=1;metaData={&quot;c4Type&quot;:{&quot;editable&quot;:false}};points=[[0.25,0,0],[0.5,0,0],[0.75,0,0],[1,0.25,0],[1,0.5,0],[1,0.75,0],[0.75,1,0],[0.5,1,0],[0.25,1,0],[0,0.75,0],[0,0.5,0],[0,0.25,0]];dashed=1;fontStyle=1;fontSize=13;" parent="1" vertex="1">
            <mxGeometry x="30" y="300" width="370" height="270" as="geometry" />
          </mxCell>
        </object>
        <mxCell id="ptLPJHkVqojylTCbv5GX-2" style="edgeStyle=orthogonalEdgeStyle;rounded=0;orthogonalLoop=1;jettySize=auto;html=1;dashed=1;dashPattern=8 8;" parent="1" source="aevcoQy2A1wj3x0GnJCE-3" target="ptLPJHkVqojylTCbv5GX-1" edge="1">
          <mxGeometry relative="1" as="geometry" />
        </mxCell>
        <mxCell id="ptLPJHkVqojylTCbv5GX-3" value="Utiliza" style="edgeLabel;html=1;align=center;verticalAlign=middle;resizable=0;points=[];" parent="ptLPJHkVqojylTCbv5GX-2" vertex="1" connectable="0">
          <mxGeometry x="-0.3251" relative="1" as="geometry">
            <mxPoint x="25" y="1" as="offset" />
          </mxGeometry>
        </mxCell>
        <object placeholders="1" c4Name="Security Manager" c4Type="Usuário" c4Description="Mantem e Audita os mecanismos de segurança." label="&lt;font style=&quot;font-size: 16px&quot;&gt;&lt;b&gt;%c4Name%&lt;/b&gt;&lt;/font&gt;&lt;div&gt;[%c4Type%]&lt;/div&gt;&lt;br&gt;&lt;div&gt;&lt;font style=&quot;font-size: 11px&quot;&gt;&lt;font color=&quot;#cccccc&quot;&gt;%c4Description%&lt;/font&gt;&lt;/div&gt;" id="aevcoQy2A1wj3x0GnJCE-3">
          <mxCell style="html=1;fontSize=11;dashed=0;whiteSpace=wrap;fillColor=#083F75;strokeColor=#06315C;fontColor=#ffffff;shape=mxgraph.c4.person2;align=center;metaEdit=1;points=[[0.5,0,0],[1,0.5,0],[1,0.75,0],[0.75,1,0],[0.5,1,0],[0.25,1,0],[0,0.75,0],[0,0.5,0]];resizable=0;" parent="1" vertex="1">
            <mxGeometry x="90" y="30" width="200" height="180" as="geometry" />
          </mxCell>
        </object>
        <mxCell id="aevcoQy2A1wj3x0GnJCE-4" value="Autoriza" style="edgeStyle=orthogonalEdgeStyle;rounded=0;orthogonalLoop=1;jettySize=auto;html=1;entryX=0;entryY=0.5;entryDx=0;entryDy=0;entryPerimeter=0;dashed=1;dashPattern=8 8;exitX=1;exitY=0.5;exitDx=0;exitDy=0;exitPerimeter=0;" parent="1" source="aevcoQy2A1wj3x0GnJCE-1" target="aevcoQy2A1wj3x0GnJCE-8" edge="1">
          <mxGeometry x="-1" y="-766" relative="1" as="geometry">
            <mxPoint x="-233" y="-36" as="offset" />
            <mxPoint x="717" y="446" as="sourcePoint" />
          </mxGeometry>
        </mxCell>
        <mxCell id="ptLPJHkVqojylTCbv5GX-4" value="Integrar" style="edgeLabel;html=1;align=center;verticalAlign=middle;resizable=0;points=[];" parent="aevcoQy2A1wj3x0GnJCE-4" vertex="1" connectable="0">
          <mxGeometry x="-0.3396" y="-3" relative="1" as="geometry">
            <mxPoint x="20" y="-18" as="offset" />
          </mxGeometry>
        </mxCell>
        <object placeholders="1" c4Name="Keycloak" c4Type="Sistema Externo" c4Description="Servidor de Identidade" label="&lt;font style=&quot;font-size: 16px&quot;&gt;&lt;b&gt;%c4Name%&lt;/b&gt;&lt;/font&gt;&lt;div&gt;[%c4Type%]&lt;/div&gt;&lt;br&gt;&lt;div&gt;&lt;font style=&quot;font-size: 11px&quot;&gt;&lt;font color=&quot;#cccccc&quot;&gt;%c4Description%&lt;/font&gt;&lt;/div&gt;" id="aevcoQy2A1wj3x0GnJCE-8">
          <mxCell style="rounded=1;whiteSpace=wrap;html=1;labelBackgroundColor=none;fillColor=#8C8496;fontColor=#ffffff;align=center;arcSize=10;strokeColor=#736782;metaEdit=1;resizable=0;points=[[0.25,0,0],[0.5,0,0],[0.75,0,0],[1,0.25,0],[1,0.5,0],[1,0.75,0],[0.75,1,0],[0.5,1,0],[0.25,1,0],[0,0.75,0],[0,0.5,0],[0,0.25,0]];" parent="1" vertex="1">
            <mxGeometry x="550" y="375" width="240" height="120" as="geometry" />
          </mxCell>
        </object>
        <object placeholders="1" c4Name="Servidor Identidade" c4Type="API" c4Description="Sistema que permite controlar os usuários habilitados para acesso aos serviços." label="&lt;font style=&quot;font-size: 16px&quot;&gt;&lt;b&gt;%c4Name%&lt;/b&gt;&lt;/font&gt;&lt;div&gt;[%c4Type%]&lt;/div&gt;&lt;br&gt;&lt;div&gt;&lt;font style=&quot;font-size: 11px&quot;&gt;&lt;font&gt;%c4Description%&lt;/font&gt;&lt;/font&gt;&lt;/div&gt;" id="ptLPJHkVqojylTCbv5GX-1">
          <mxCell style="rounded=1;whiteSpace=wrap;html=1;labelBackgroundColor=none;fillColor=#52A2D8;fontColor=#FFFFFF;align=center;arcSize=10;strokeColor=#0D5091;metaEdit=1;resizable=0;points=[[0.25,0,0],[0.5,0,0],[0.75,0,0],[1,0.25,0],[1,0.5,0],[1,0.75,0],[0.75,1,0],[0.5,1,0],[0.25,1,0],[0,0.75,0],[0,0.5,0],[0,0.25,0]];" parent="1" vertex="1">
            <mxGeometry x="70" y="360" width="240" height="120" as="geometry" />
          </mxCell>
        </object>
        <mxCell id="LUc7_m3Od1g2E6wc3dY0-1" value="Legenda" style="shape=table;startSize=19;container=1;collapsible=0;childLayout=tableLayout;fontSize=16;align=left;verticalAlign=top;fillColor=none;strokeColor=none;fontColor=#4D4D4D;fontStyle=1;spacingLeft=6;spacing=0;resizable=0;resizeLastRow=1;" parent="1" vertex="1">
          <mxGeometry x="570" y="100" width="180" height="114" as="geometry" />
        </mxCell>
        <mxCell id="LUc7_m3Od1g2E6wc3dY0-2" value="" style="shape=tableRow;horizontal=0;startSize=0;swimlaneHead=0;swimlaneBody=0;strokeColor=inherit;top=0;left=0;bottom=0;right=0;collapsible=0;dropTarget=0;fillColor=none;points=[[0,0.5],[1,0.5]];portConstraint=eastwest;fontSize=12;" parent="LUc7_m3Od1g2E6wc3dY0-1" vertex="1">
          <mxGeometry y="19" width="180" height="32" as="geometry" />
        </mxCell>
        <mxCell id="LUc7_m3Od1g2E6wc3dY0-3" value="Usuário" style="shape=partialRectangle;html=1;whiteSpace=wrap;connectable=0;strokeColor=inherit;overflow=hidden;fillColor=#1E4074;top=0;left=0;bottom=0;right=0;pointerEvents=1;fontSize=12;align=left;fontColor=#FFFFFF;gradientColor=none;spacingLeft=10;spacingRight=4;" parent="LUc7_m3Od1g2E6wc3dY0-2" vertex="1">
          <mxGeometry width="180" height="32" as="geometry">
            <mxRectangle width="180" height="32" as="alternateBounds" />
          </mxGeometry>
        </mxCell>
        <mxCell id="LUc7_m3Od1g2E6wc3dY0-4" value="" style="shape=tableRow;horizontal=0;startSize=0;swimlaneHead=0;swimlaneBody=0;strokeColor=inherit;top=0;left=0;bottom=0;right=0;collapsible=0;dropTarget=0;fillColor=none;points=[[0,0.5],[1,0.5]];portConstraint=eastwest;fontSize=12;" parent="LUc7_m3Od1g2E6wc3dY0-1" vertex="1">
          <mxGeometry y="51" width="180" height="31" as="geometry" />
        </mxCell>
        <mxCell id="LUc7_m3Od1g2E6wc3dY0-5" value="API" style="shape=partialRectangle;html=1;whiteSpace=wrap;connectable=0;strokeColor=inherit;overflow=hidden;fillColor=#52a2d8;top=0;left=0;bottom=0;right=0;pointerEvents=1;fontSize=12;align=left;fontColor=#FFFFFF;gradientColor=none;spacingLeft=10;spacingRight=4;" parent="LUc7_m3Od1g2E6wc3dY0-4" vertex="1">
          <mxGeometry width="180" height="31" as="geometry">
            <mxRectangle width="180" height="31" as="alternateBounds" />
          </mxGeometry>
        </mxCell>
        <mxCell id="LUc7_m3Od1g2E6wc3dY0-6" value="" style="shape=tableRow;horizontal=0;startSize=0;swimlaneHead=0;swimlaneBody=0;strokeColor=inherit;top=0;left=0;bottom=0;right=0;collapsible=0;dropTarget=0;fillColor=none;points=[[0,0.5],[1,0.5]];portConstraint=eastwest;fontSize=12;" parent="LUc7_m3Od1g2E6wc3dY0-1" vertex="1">
          <mxGeometry y="82" width="180" height="32" as="geometry" />
        </mxCell>
        <mxCell id="LUc7_m3Od1g2E6wc3dY0-7" value="Sistema Externo" style="shape=partialRectangle;html=1;whiteSpace=wrap;connectable=0;strokeColor=inherit;overflow=hidden;fillColor=#6b6477;top=0;left=0;bottom=0;right=0;pointerEvents=1;fontSize=12;align=left;fontColor=#FFFFFF;gradientColor=none;spacingLeft=10;spacingRight=4;" parent="LUc7_m3Od1g2E6wc3dY0-6" vertex="1">
          <mxGeometry width="180" height="32" as="geometry">
            <mxRectangle width="180" height="32" as="alternateBounds" />
          </mxGeometry>
        </mxCell>
      </root>
    </mxGraphModel>
  </diagram>
  <diagram name="Container" id="_NV-KgGNEmI1Rd9qFA_1">
    <mxGraphModel dx="1985" dy="1140" grid="0" gridSize="10" guides="1" tooltips="1" connect="1" arrows="1" fold="1" page="1" pageScale="1" pageWidth="1169" pageHeight="827" math="0" shadow="0">
      <root>
        <mxCell id="kHQXX2-oMwQ5p4H3qg-S-0" />
        <mxCell id="kHQXX2-oMwQ5p4H3qg-S-1" parent="kHQXX2-oMwQ5p4H3qg-S-0" />
        <object placeholders="1" c4Name="Sistema de Servidor de Identidade" c4Type="ExecutionEnvironment" c4Application="Solução de Software" label="&lt;div style=&quot;text-align: left; font-size: 13px;&quot;&gt;%c4Name%&lt;/div&gt;&lt;div style=&quot;text-align: left; font-size: 13px;&quot;&gt;[%c4Application%]&lt;/div&gt;" id="kHQXX2-oMwQ5p4H3qg-S-2">
          <mxCell style="rounded=1;whiteSpace=wrap;html=1;labelBackgroundColor=none;fillColor=#ffffff;fontColor=#000000;align=left;arcSize=5;strokeColor=#000000;verticalAlign=bottom;metaEdit=1;metaData={&quot;c4Type&quot;:{&quot;editable&quot;:false}};points=[[0.25,0,0],[0.5,0,0],[0.75,0,0],[1,0.25,0],[1,0.5,0],[1,0.75,0],[0.75,1,0],[0.5,1,0],[0.25,1,0],[0,0.75,0],[0,0.5,0],[0,0.25,0]];dashed=1;fontStyle=1;fontSize=13;" parent="kHQXX2-oMwQ5p4H3qg-S-1" vertex="1">
            <mxGeometry x="50" y="316" width="1188" height="719" as="geometry" />
          </mxCell>
        </object>
        <mxCell id="kHQXX2-oMwQ5p4H3qg-S-15" style="edgeStyle=orthogonalEdgeStyle;rounded=0;orthogonalLoop=1;jettySize=auto;html=1;dashed=1;dashPattern=8 8;" parent="kHQXX2-oMwQ5p4H3qg-S-1" source="kHQXX2-oMwQ5p4H3qg-S-16" target="kHQXX2-oMwQ5p4H3qg-S-23" edge="1">
          <mxGeometry relative="1" as="geometry">
            <Array as="points">
              <mxPoint x="665" y="262" />
              <mxPoint x="665" y="262" />
            </Array>
          </mxGeometry>
        </mxCell>
        <object placeholders="1" c4Name="Security Manager" c4Type="Usuário" c4Description="Mantem e Audita os mecanismos de segurança." label="&lt;font style=&quot;font-size: 16px&quot;&gt;&lt;b&gt;%c4Name%&lt;/b&gt;&lt;/font&gt;&lt;div&gt;[%c4Type%]&lt;/div&gt;&lt;br&gt;&lt;div&gt;&lt;font style=&quot;font-size: 11px&quot;&gt;&lt;font color=&quot;#cccccc&quot;&gt;%c4Description%&lt;/font&gt;&lt;/div&gt;" id="kHQXX2-oMwQ5p4H3qg-S-16">
          <mxCell style="html=1;fontSize=11;dashed=0;whiteSpace=wrap;fillColor=#083F75;strokeColor=#06315C;fontColor=#ffffff;shape=mxgraph.c4.person2;align=center;metaEdit=1;points=[[0.5,0,0],[1,0.5,0],[1,0.75,0],[0.75,1,0],[0.5,1,0],[0.25,1,0],[0,0.75,0],[0,0.5,0]];resizable=0;" parent="kHQXX2-oMwQ5p4H3qg-S-1" vertex="1">
            <mxGeometry x="573" y="53" width="200" height="180" as="geometry" />
          </mxCell>
        </object>
        <mxCell id="kHQXX2-oMwQ5p4H3qg-S-17" value="" style="edgeStyle=orthogonalEdgeStyle;rounded=0;orthogonalLoop=1;jettySize=auto;html=1;entryX=0;entryY=0.5;entryDx=0;entryDy=0;entryPerimeter=0;dashed=1;dashPattern=8 8;" parent="kHQXX2-oMwQ5p4H3qg-S-1" source="kHQXX2-oMwQ5p4H3qg-S-20" target="kHQXX2-oMwQ5p4H3qg-S-21" edge="1">
          <mxGeometry x="-1" y="-766" relative="1" as="geometry">
            <mxPoint x="-233" y="-36" as="offset" />
          </mxGeometry>
        </mxCell>
        <mxCell id="kHQXX2-oMwQ5p4H3qg-S-18" value="Integrar: sdk" style="edgeLabel;html=1;align=center;verticalAlign=middle;resizable=0;points=[];" parent="kHQXX2-oMwQ5p4H3qg-S-17" vertex="1" connectable="0">
          <mxGeometry x="0.3072" y="-2" relative="1" as="geometry">
            <mxPoint x="-45" y="-18" as="offset" />
          </mxGeometry>
        </mxCell>
        <object placeholders="1" c4Name="Gerenciador Servidor Identidade" c4Type="API" c4Description="Gerenciador do Servidor de Identidade integrado ao Keycloak." label="&lt;font style=&quot;font-size: 16px&quot;&gt;&lt;b&gt;%c4Name%&lt;/b&gt;&lt;/font&gt;&lt;div&gt;[%c4Type%]&lt;/div&gt;&lt;br&gt;&lt;div&gt;&lt;font style=&quot;font-size: 11px&quot;&gt;&lt;font&gt;%c4Description%&lt;/font&gt;&lt;/font&gt;&lt;/div&gt;" id="kHQXX2-oMwQ5p4H3qg-S-20">
          <mxCell style="rounded=1;whiteSpace=wrap;html=1;labelBackgroundColor=none;fillColor=#52A2D8;fontColor=#FFFFFF;align=center;arcSize=10;strokeColor=#0D5091;metaEdit=1;resizable=0;points=[[0.25,0,0],[0.5,0,0],[0.75,0,0],[1,0.25,0],[1,0.5,0],[1,0.75,0],[0.75,1,0],[0.5,1,0],[0.25,1,0],[0,0.75,0],[0,0.5,0],[0,0.25,0]];" parent="kHQXX2-oMwQ5p4H3qg-S-1" vertex="1">
            <mxGeometry x="903" y="362" width="240" height="120" as="geometry" />
          </mxCell>
        </object>
        <object placeholders="1" c4Name="Keycloak" c4Type="Sistema Externo" c4Description="Servidor de Identidade" label="&lt;font style=&quot;font-size: 16px&quot;&gt;&lt;b&gt;%c4Name%&lt;/b&gt;&lt;/font&gt;&lt;div&gt;[%c4Type%]&lt;/div&gt;&lt;br&gt;&lt;div&gt;&lt;font style=&quot;font-size: 11px&quot;&gt;&lt;font color=&quot;#cccccc&quot;&gt;%c4Description%&lt;/font&gt;&lt;/div&gt;" id="kHQXX2-oMwQ5p4H3qg-S-21">
          <mxCell style="rounded=1;whiteSpace=wrap;html=1;labelBackgroundColor=none;fillColor=#8C8496;fontColor=#ffffff;align=center;arcSize=10;strokeColor=#736782;metaEdit=1;resizable=0;points=[[0.25,0,0],[0.5,0,0],[0.75,0,0],[1,0.25,0],[1,0.5,0],[1,0.75,0],[0.75,1,0],[0.5,1,0],[0.25,1,0],[0,0.75,0],[0,0.5,0],[0,0.25,0]];" parent="kHQXX2-oMwQ5p4H3qg-S-1" vertex="1">
            <mxGeometry x="1394" y="365" width="240" height="120" as="geometry" />
          </mxCell>
        </object>
        <object placeholders="1" c4Type="Banco de Dados" c4Container="Container" c4Technology="PostgreSQL" c4Description="Servidor de Banco de Dados" label="&lt;font style=&quot;font-size: 16px&quot;&gt;&lt;b&gt;%c4Type%&lt;/b&gt;&lt;/font&gt;&lt;div&gt;[%c4Container%:&amp;nbsp;%c4Technology%]&lt;/div&gt;&lt;br&gt;&lt;div&gt;&lt;font style=&quot;font-size: 11px&quot;&gt;&lt;font color=&quot;#E6E6E6&quot;&gt;%c4Description%&lt;/font&gt;&lt;/div&gt;" id="kHQXX2-oMwQ5p4H3qg-S-22">
          <mxCell style="shape=cylinder3;size=15;whiteSpace=wrap;html=1;boundedLbl=1;rounded=0;labelBackgroundColor=none;fillColor=#67AB9F;fontSize=12;align=center;strokeColor=#E6E6E6;metaEdit=1;points=[[0.5,0,0],[1,0.25,0],[1,0.5,0],[1,0.75,0],[0.5,1,0],[0,0.75,0],[0,0.5,0],[0,0.25,0]];resizable=0;" parent="kHQXX2-oMwQ5p4H3qg-S-1" vertex="1">
            <mxGeometry x="927" y="866" width="240" height="120" as="geometry" />
          </mxCell>
        </object>
        <mxCell id="QnqqwBBe2G2l0NLA1WeS-4" style="edgeStyle=orthogonalEdgeStyle;rounded=0;orthogonalLoop=1;jettySize=auto;html=1;dashed=1;dashPattern=8 8;" parent="kHQXX2-oMwQ5p4H3qg-S-1" source="kHQXX2-oMwQ5p4H3qg-S-23" target="kHQXX2-oMwQ5p4H3qg-S-20" edge="1">
          <mxGeometry relative="1" as="geometry" />
        </mxCell>
        <mxCell id="QnqqwBBe2G2l0NLA1WeS-5" value="Gravar log" style="edgeLabel;html=1;align=center;verticalAlign=middle;resizable=0;points=[];" parent="QnqqwBBe2G2l0NLA1WeS-4" vertex="1" connectable="0">
          <mxGeometry x="0.1812" y="-1" relative="1" as="geometry">
            <mxPoint x="-5" y="-17" as="offset" />
          </mxGeometry>
        </mxCell>
        <mxCell id="Nk2902pyZFaR9Ht3BzaX-1" style="edgeStyle=orthogonalEdgeStyle;rounded=0;orthogonalLoop=1;jettySize=auto;html=1;dashed=1;dashPattern=8 8;" edge="1" parent="kHQXX2-oMwQ5p4H3qg-S-1" source="kHQXX2-oMwQ5p4H3qg-S-23" target="Nk2902pyZFaR9Ht3BzaX-0">
          <mxGeometry relative="1" as="geometry" />
        </mxCell>
        <mxCell id="Nk2902pyZFaR9Ht3BzaX-2" value="Emitir relatórios" style="edgeLabel;html=1;align=center;verticalAlign=middle;resizable=0;points=[];" vertex="1" connectable="0" parent="Nk2902pyZFaR9Ht3BzaX-1">
          <mxGeometry x="-0.1714" y="3" relative="1" as="geometry">
            <mxPoint x="47" y="8" as="offset" />
          </mxGeometry>
        </mxCell>
        <object placeholders="1" c4Name="Aplicativo WEB" c4Type="App WEB" c4Description="Aplicação Frontend que acessa as APIs de gestão do Sistema" label="&lt;font style=&quot;font-size: 16px&quot;&gt;&lt;b&gt;%c4Name%&lt;/b&gt;&lt;/font&gt;&lt;div&gt;[%c4Type%]&lt;/div&gt;&lt;br&gt;&lt;div&gt;&lt;font style=&quot;font-size: 11px&quot;&gt;&lt;font color=&quot;#cccccc&quot;&gt;%c4Description%&lt;/font&gt;&lt;/div&gt;" id="kHQXX2-oMwQ5p4H3qg-S-23">
          <mxCell style="rounded=1;whiteSpace=wrap;html=1;labelBackgroundColor=none;fillColor=#0066CC;fontColor=#ffffff;align=center;arcSize=10;strokeColor=#0D5091;metaEdit=1;resizable=0;points=[[0.25,0,0],[0.5,0,0],[0.75,0,0],[1,0.25,0],[1,0.5,0],[1,0.75,0],[0.75,1,0],[0.5,1,0],[0.25,1,0],[0,0.75,0],[0,0.5,0],[0,0.25,0]];" parent="kHQXX2-oMwQ5p4H3qg-S-1" vertex="1">
            <mxGeometry x="536" y="358" width="240" height="120" as="geometry" />
          </mxCell>
        </object>
        <mxCell id="kHQXX2-oMwQ5p4H3qg-S-3" value="Legenda" style="shape=table;startSize=19;container=1;collapsible=0;childLayout=tableLayout;fontSize=16;align=left;verticalAlign=top;fillColor=none;strokeColor=none;fontColor=#4D4D4D;fontStyle=1;spacingLeft=6;spacing=0;resizable=0;resizeLastRow=1;" parent="kHQXX2-oMwQ5p4H3qg-S-1" vertex="1">
          <mxGeometry x="1275" y="7" width="180" height="210" as="geometry" />
        </mxCell>
        <mxCell id="kHQXX2-oMwQ5p4H3qg-S-4" value="" style="shape=tableRow;horizontal=0;startSize=0;swimlaneHead=0;swimlaneBody=0;strokeColor=inherit;top=0;left=0;bottom=0;right=0;collapsible=0;dropTarget=0;fillColor=none;points=[[0,0.5],[1,0.5]];portConstraint=eastwest;fontSize=12;" parent="kHQXX2-oMwQ5p4H3qg-S-3" vertex="1">
          <mxGeometry y="19" width="180" height="32" as="geometry" />
        </mxCell>
        <mxCell id="kHQXX2-oMwQ5p4H3qg-S-5" value="Usuário" style="shape=partialRectangle;html=1;whiteSpace=wrap;connectable=0;strokeColor=inherit;overflow=hidden;fillColor=#1E4074;top=0;left=0;bottom=0;right=0;pointerEvents=1;fontSize=12;align=left;fontColor=#FFFFFF;gradientColor=none;spacingLeft=10;spacingRight=4;" parent="kHQXX2-oMwQ5p4H3qg-S-4" vertex="1">
          <mxGeometry width="180" height="32" as="geometry">
            <mxRectangle width="180" height="32" as="alternateBounds" />
          </mxGeometry>
        </mxCell>
        <mxCell id="kHQXX2-oMwQ5p4H3qg-S-6" value="" style="shape=tableRow;horizontal=0;startSize=0;swimlaneHead=0;swimlaneBody=0;strokeColor=inherit;top=0;left=0;bottom=0;right=0;collapsible=0;dropTarget=0;fillColor=none;points=[[0,0.5],[1,0.5]];portConstraint=eastwest;fontSize=12;" parent="kHQXX2-oMwQ5p4H3qg-S-3" vertex="1">
          <mxGeometry y="51" width="180" height="32" as="geometry" />
        </mxCell>
        <mxCell id="kHQXX2-oMwQ5p4H3qg-S-7" value="Aplicação WEB" style="shape=partialRectangle;html=1;whiteSpace=wrap;connectable=0;strokeColor=inherit;overflow=hidden;fillColor=#0066CC;top=0;left=0;bottom=0;right=0;pointerEvents=1;fontSize=12;align=left;fontColor=#FFFFFF;gradientColor=none;spacingLeft=10;spacingRight=4;" parent="kHQXX2-oMwQ5p4H3qg-S-6" vertex="1">
          <mxGeometry width="180" height="32" as="geometry">
            <mxRectangle width="180" height="32" as="alternateBounds" />
          </mxGeometry>
        </mxCell>
        <mxCell id="kHQXX2-oMwQ5p4H3qg-S-8" value="" style="shape=tableRow;horizontal=0;startSize=0;swimlaneHead=0;swimlaneBody=0;strokeColor=inherit;top=0;left=0;bottom=0;right=0;collapsible=0;dropTarget=0;fillColor=none;points=[[0,0.5],[1,0.5]];portConstraint=eastwest;fontSize=12;" parent="kHQXX2-oMwQ5p4H3qg-S-3" vertex="1">
          <mxGeometry y="83" width="180" height="31" as="geometry" />
        </mxCell>
        <mxCell id="kHQXX2-oMwQ5p4H3qg-S-9" value="API" style="shape=partialRectangle;html=1;whiteSpace=wrap;connectable=0;strokeColor=inherit;overflow=hidden;fillColor=#52a2d8;top=0;left=0;bottom=0;right=0;pointerEvents=1;fontSize=12;align=left;fontColor=#FFFFFF;gradientColor=none;spacingLeft=10;spacingRight=4;" parent="kHQXX2-oMwQ5p4H3qg-S-8" vertex="1">
          <mxGeometry width="180" height="31" as="geometry">
            <mxRectangle width="180" height="31" as="alternateBounds" />
          </mxGeometry>
        </mxCell>
        <mxCell id="kHQXX2-oMwQ5p4H3qg-S-10" value="" style="shape=tableRow;horizontal=0;startSize=0;swimlaneHead=0;swimlaneBody=0;strokeColor=inherit;top=0;left=0;bottom=0;right=0;collapsible=0;dropTarget=0;fillColor=none;points=[[0,0.5],[1,0.5]];portConstraint=eastwest;fontSize=12;" parent="kHQXX2-oMwQ5p4H3qg-S-3" vertex="1">
          <mxGeometry y="114" width="180" height="32" as="geometry" />
        </mxCell>
        <mxCell id="kHQXX2-oMwQ5p4H3qg-S-11" value="Sistema Externo" style="shape=partialRectangle;html=1;whiteSpace=wrap;connectable=0;strokeColor=inherit;overflow=hidden;fillColor=#6b6477;top=0;left=0;bottom=0;right=0;pointerEvents=1;fontSize=12;align=left;fontColor=#FFFFFF;gradientColor=none;spacingLeft=10;spacingRight=4;" parent="kHQXX2-oMwQ5p4H3qg-S-10" vertex="1">
          <mxGeometry width="180" height="32" as="geometry">
            <mxRectangle width="180" height="32" as="alternateBounds" />
          </mxGeometry>
        </mxCell>
        <mxCell id="AV6pY4rSwfha-Kmop0BI-5" value="" style="shape=tableRow;horizontal=0;startSize=0;swimlaneHead=0;swimlaneBody=0;strokeColor=inherit;top=0;left=0;bottom=0;right=0;collapsible=0;dropTarget=0;fillColor=none;points=[[0,0.5],[1,0.5]];portConstraint=eastwest;fontSize=12;" parent="kHQXX2-oMwQ5p4H3qg-S-3" vertex="1">
          <mxGeometry y="146" width="180" height="32" as="geometry" />
        </mxCell>
        <mxCell id="AV6pY4rSwfha-Kmop0BI-6" value="Sistema Legado" style="shape=partialRectangle;html=1;whiteSpace=wrap;connectable=0;strokeColor=inherit;overflow=hidden;fillColor=#4D4D4D;top=0;left=0;bottom=0;right=0;pointerEvents=1;fontSize=12;align=left;fontColor=#FFFFFF;gradientColor=none;spacingLeft=10;spacingRight=4;" parent="AV6pY4rSwfha-Kmop0BI-5" vertex="1">
          <mxGeometry width="180" height="32" as="geometry">
            <mxRectangle width="180" height="32" as="alternateBounds" />
          </mxGeometry>
        </mxCell>
        <mxCell id="kHQXX2-oMwQ5p4H3qg-S-12" value="" style="shape=tableRow;horizontal=0;startSize=0;swimlaneHead=0;swimlaneBody=0;strokeColor=inherit;top=0;left=0;bottom=0;right=0;collapsible=0;dropTarget=0;fillColor=none;points=[[0,0.5],[1,0.5]];portConstraint=eastwest;fontSize=12;" parent="kHQXX2-oMwQ5p4H3qg-S-3" vertex="1">
          <mxGeometry y="178" width="180" height="32" as="geometry" />
        </mxCell>
        <mxCell id="kHQXX2-oMwQ5p4H3qg-S-13" value="Banco de Dados" style="shape=partialRectangle;html=1;whiteSpace=wrap;connectable=0;strokeColor=inherit;overflow=hidden;fillColor=#67AB9F;top=0;left=0;bottom=0;right=0;pointerEvents=1;fontSize=12;align=left;fontColor=#FFFFFF;gradientColor=none;spacingLeft=10;spacingRight=4;" parent="kHQXX2-oMwQ5p4H3qg-S-12" vertex="1">
          <mxGeometry width="180" height="32" as="geometry">
            <mxRectangle width="180" height="32" as="alternateBounds" />
          </mxGeometry>
        </mxCell>
        <object placeholders="1" c4Name="Controlador Servidor Identidade" c4Type="API" c4Description="Controlador do Servidor de Identidade responsavel pela geração de Tokens de Autenticação" label="&lt;font style=&quot;font-size: 16px&quot;&gt;&lt;b&gt;%c4Name%&lt;/b&gt;&lt;/font&gt;&lt;div&gt;[%c4Type%]&lt;/div&gt;&lt;br&gt;&lt;div&gt;&lt;font style=&quot;font-size: 11px&quot;&gt;&lt;font&gt;%c4Description%&lt;/font&gt;&lt;/font&gt;&lt;/div&gt;" id="AV6pY4rSwfha-Kmop0BI-1">
          <mxCell style="rounded=1;whiteSpace=wrap;html=1;labelBackgroundColor=none;fillColor=#52A2D8;fontColor=#FFFFFF;align=center;arcSize=10;strokeColor=#0D5091;metaEdit=1;resizable=0;points=[[0.25,0,0],[0.5,0,0],[0.75,0,0],[1,0.25,0],[1,0.5,0],[1,0.75,0],[0.75,1,0],[0.5,1,0],[0.25,1,0],[0,0.75,0],[0,0.5,0],[0,0.25,0]];" parent="kHQXX2-oMwQ5p4H3qg-S-1" vertex="1">
            <mxGeometry x="154" y="543" width="240" height="120" as="geometry" />
          </mxCell>
        </object>
        <mxCell id="AV6pY4rSwfha-Kmop0BI-2" style="edgeStyle=orthogonalEdgeStyle;rounded=0;orthogonalLoop=1;jettySize=auto;html=1;entryX=0;entryY=0.5;entryDx=0;entryDy=0;entryPerimeter=0;dashed=1;dashPattern=8 8;" parent="kHQXX2-oMwQ5p4H3qg-S-1" source="AV6pY4rSwfha-Kmop0BI-1" target="kHQXX2-oMwQ5p4H3qg-S-22" edge="1">
          <mxGeometry relative="1" as="geometry">
            <Array as="points">
              <mxPoint x="274" y="781" />
              <mxPoint x="566" y="781" />
              <mxPoint x="566" y="926" />
            </Array>
          </mxGeometry>
        </mxCell>
        <mxCell id="AV6pY4rSwfha-Kmop0BI-3" value="Gravar log" style="edgeLabel;html=1;align=center;verticalAlign=middle;resizable=0;points=[];" parent="AV6pY4rSwfha-Kmop0BI-2" vertex="1" connectable="0">
          <mxGeometry x="-0.4087" y="-8" relative="1" as="geometry">
            <mxPoint x="48" y="2" as="offset" />
          </mxGeometry>
        </mxCell>
        <object placeholders="1" c4Name="Sistema Legado" c4Type="API" c4Description="Sistema Legado que necessita de Autenticacao" label="&lt;font style=&quot;font-size: 16px&quot;&gt;&lt;b&gt;%c4Name%&lt;/b&gt;&lt;/font&gt;&lt;div&gt;[%c4Type%]&lt;/div&gt;&lt;br&gt;&lt;div&gt;&lt;font style=&quot;font-size: 11px&quot;&gt;&lt;font color=&quot;#cccccc&quot;&gt;%c4Description%&lt;/font&gt;&lt;/div&gt;" id="AV6pY4rSwfha-Kmop0BI-4">
          <mxCell style="rounded=1;whiteSpace=wrap;html=1;labelBackgroundColor=none;fillColor=#4D4D4D;fontColor=#ffffff;align=center;arcSize=10;strokeColor=#736782;metaEdit=1;resizable=0;points=[[0.25,0,0],[0.5,0,0],[0.75,0,0],[1,0.25,0],[1,0.5,0],[1,0.75,0],[0.75,1,0],[0.5,1,0],[0.25,1,0],[0,0.75,0],[0,0.5,0],[0,0.25,0]];" parent="kHQXX2-oMwQ5p4H3qg-S-1" vertex="1">
            <mxGeometry x="171" y="105" width="240" height="120" as="geometry" />
          </mxCell>
        </object>
        <mxCell id="AV6pY4rSwfha-Kmop0BI-7" style="edgeStyle=orthogonalEdgeStyle;rounded=0;orthogonalLoop=1;jettySize=auto;html=1;dashed=1;dashPattern=8 8;" parent="kHQXX2-oMwQ5p4H3qg-S-1" source="AV6pY4rSwfha-Kmop0BI-4" edge="1">
          <mxGeometry relative="1" as="geometry">
            <mxPoint x="294" y="543" as="targetPoint" />
            <Array as="points">
              <mxPoint x="294" y="543" />
            </Array>
          </mxGeometry>
        </mxCell>
        <mxCell id="AV6pY4rSwfha-Kmop0BI-8" value="Http request: obter token" style="edgeLabel;html=1;align=center;verticalAlign=middle;resizable=0;points=[];" parent="AV6pY4rSwfha-Kmop0BI-7" vertex="1" connectable="0">
          <mxGeometry x="0.4016" y="-2" relative="1" as="geometry">
            <mxPoint x="-5" y="-16" as="offset" />
          </mxGeometry>
        </mxCell>
        <object placeholders="1" c4Name="Auditor Servidor Identidade" c4Type="API" c4Description="Auditor do Servidor de Identidade responsavel pela analise dos logs" label="&lt;font style=&quot;font-size: 16px&quot;&gt;&lt;b&gt;%c4Name%&lt;/b&gt;&lt;/font&gt;&lt;div&gt;[%c4Type%]&lt;/div&gt;&lt;br&gt;&lt;div&gt;&lt;font style=&quot;font-size: 11px&quot;&gt;&lt;font&gt;%c4Description%&lt;/font&gt;&lt;/font&gt;&lt;/div&gt;" id="Nk2902pyZFaR9Ht3BzaX-0">
          <mxCell style="rounded=1;whiteSpace=wrap;html=1;labelBackgroundColor=none;fillColor=#52A2D8;fontColor=#FFFFFF;align=center;arcSize=10;strokeColor=#0D5091;metaEdit=1;resizable=0;points=[[0.25,0,0],[0.5,0,0],[0.75,0,0],[1,0.25,0],[1,0.5,0],[1,0.75,0],[0.75,1,0],[0.5,1,0],[0.25,1,0],[0,0.75,0],[0,0.5,0],[0,0.25,0]];" vertex="1" parent="kHQXX2-oMwQ5p4H3qg-S-1">
            <mxGeometry x="536" y="570" width="240" height="120" as="geometry" />
          </mxCell>
        </object>
        <mxCell id="Nk2902pyZFaR9Ht3BzaX-3" style="edgeStyle=orthogonalEdgeStyle;rounded=0;orthogonalLoop=1;jettySize=auto;html=1;dashed=1;dashPattern=8 8;entryX=0.314;entryY=0.005;entryDx=0;entryDy=0;entryPerimeter=0;" edge="1" parent="kHQXX2-oMwQ5p4H3qg-S-1" source="Nk2902pyZFaR9Ht3BzaX-0" target="kHQXX2-oMwQ5p4H3qg-S-22">
          <mxGeometry relative="1" as="geometry">
            <mxPoint x="979" y="1010" as="targetPoint" />
          </mxGeometry>
        </mxCell>
        <mxCell id="Nk2902pyZFaR9Ht3BzaX-4" value="Consultar log" style="edgeLabel;html=1;align=center;verticalAlign=middle;resizable=0;points=[];" vertex="1" connectable="0" parent="Nk2902pyZFaR9Ht3BzaX-3">
          <mxGeometry x="-0.5353" y="1" relative="1" as="geometry">
            <mxPoint x="-2" y="-13" as="offset" />
          </mxGeometry>
        </mxCell>
        <mxCell id="Nk2902pyZFaR9Ht3BzaX-5" style="edgeStyle=orthogonalEdgeStyle;rounded=0;orthogonalLoop=1;jettySize=auto;html=1;dashed=1;dashPattern=8 8;exitX=0.75;exitY=1;exitDx=0;exitDy=0;exitPerimeter=0;entryX=0.675;entryY=0.014;entryDx=0;entryDy=0;entryPerimeter=0;" edge="1" parent="kHQXX2-oMwQ5p4H3qg-S-1" source="kHQXX2-oMwQ5p4H3qg-S-20" target="kHQXX2-oMwQ5p4H3qg-S-22">
          <mxGeometry relative="1" as="geometry">
            <mxPoint x="1115.0400000000004" y="512" as="sourcePoint" />
            <mxPoint x="1097" y="1036" as="targetPoint" />
            <Array as="points">
              <mxPoint x="1083" y="642" />
              <mxPoint x="1115" y="642" />
              <mxPoint x="1115" y="832" />
              <mxPoint x="1089" y="832" />
            </Array>
          </mxGeometry>
        </mxCell>
        <mxCell id="Nk2902pyZFaR9Ht3BzaX-6" value="Gravar log" style="edgeLabel;html=1;align=center;verticalAlign=middle;resizable=0;points=[];" vertex="1" connectable="0" parent="Nk2902pyZFaR9Ht3BzaX-5">
          <mxGeometry x="-0.5834" y="2" relative="1" as="geometry">
            <mxPoint x="34" y="52" as="offset" />
          </mxGeometry>
        </mxCell>
      </root>
    </mxGraphModel>
  </diagram>
  <diagram id="E28Nx7XlWnM1r1eDEy0K" name="Container - Gerenciador">
    <mxGraphModel dx="1985" dy="1140" grid="0" gridSize="10" guides="1" tooltips="1" connect="1" arrows="1" fold="1" page="1" pageScale="1" pageWidth="1169" pageHeight="827" math="0" shadow="0">
      <root>
        <mxCell id="1dNAwvJjR2Vt91CnmCib-0" />
        <mxCell id="1dNAwvJjR2Vt91CnmCib-1" parent="1dNAwvJjR2Vt91CnmCib-0" />
        <object placeholders="1" c4Name="Sistema de Servidor de Identidade" c4Type="ExecutionEnvironment" c4Application="Solução de Software" label="&lt;div style=&quot;text-align: left; font-size: 13px;&quot;&gt;%c4Name%&lt;/div&gt;&lt;div style=&quot;text-align: left; font-size: 13px;&quot;&gt;[%c4Application%]&lt;/div&gt;" id="FmzCtH3McJ6rauoGFrDZ-2">
          <mxCell style="rounded=1;whiteSpace=wrap;html=1;labelBackgroundColor=none;fillColor=#ffffff;fontColor=#000000;align=left;arcSize=5;strokeColor=#000000;verticalAlign=bottom;metaEdit=1;metaData={&quot;c4Type&quot;:{&quot;editable&quot;:false}};points=[[0.25,0,0],[0.5,0,0],[0.75,0,0],[1,0.25,0],[1,0.5,0],[1,0.75,0],[0.75,1,0],[0.5,1,0],[0.25,1,0],[0,0.75,0],[0,0.5,0],[0,0.25,0]];dashed=1;fontStyle=1;fontSize=13;" parent="1dNAwvJjR2Vt91CnmCib-1" vertex="1">
            <mxGeometry x="30" y="268" width="759" height="316" as="geometry" />
          </mxCell>
        </object>
        <mxCell id="F--JvnuP-JdAPcl4DWBi-0" value="Legenda" style="shape=table;startSize=19;container=1;collapsible=0;childLayout=tableLayout;fontSize=16;align=left;verticalAlign=top;fillColor=none;strokeColor=none;fontColor=#4D4D4D;fontStyle=1;spacingLeft=6;spacing=0;resizable=0;resizeLastRow=1;" parent="1dNAwvJjR2Vt91CnmCib-1" vertex="1">
          <mxGeometry x="881" y="84" width="180" height="178" as="geometry" />
        </mxCell>
        <mxCell id="F--JvnuP-JdAPcl4DWBi-1" value="" style="shape=tableRow;horizontal=0;startSize=0;swimlaneHead=0;swimlaneBody=0;strokeColor=inherit;top=0;left=0;bottom=0;right=0;collapsible=0;dropTarget=0;fillColor=none;points=[[0,0.5],[1,0.5]];portConstraint=eastwest;fontSize=12;" parent="F--JvnuP-JdAPcl4DWBi-0" vertex="1">
          <mxGeometry y="19" width="180" height="32" as="geometry" />
        </mxCell>
        <mxCell id="F--JvnuP-JdAPcl4DWBi-2" value="Usuário" style="shape=partialRectangle;html=1;whiteSpace=wrap;connectable=0;strokeColor=inherit;overflow=hidden;fillColor=#1E4074;top=0;left=0;bottom=0;right=0;pointerEvents=1;fontSize=12;align=left;fontColor=#FFFFFF;gradientColor=none;spacingLeft=10;spacingRight=4;" parent="F--JvnuP-JdAPcl4DWBi-1" vertex="1">
          <mxGeometry width="180" height="32" as="geometry">
            <mxRectangle width="180" height="32" as="alternateBounds" />
          </mxGeometry>
        </mxCell>
        <mxCell id="Ai2TTvlaKjhkr6nmEyGM-0" value="" style="shape=tableRow;horizontal=0;startSize=0;swimlaneHead=0;swimlaneBody=0;strokeColor=inherit;top=0;left=0;bottom=0;right=0;collapsible=0;dropTarget=0;fillColor=none;points=[[0,0.5],[1,0.5]];portConstraint=eastwest;fontSize=12;" parent="F--JvnuP-JdAPcl4DWBi-0" vertex="1">
          <mxGeometry y="51" width="180" height="32" as="geometry" />
        </mxCell>
        <mxCell id="Ai2TTvlaKjhkr6nmEyGM-1" value="Aplicação WEB" style="shape=partialRectangle;html=1;whiteSpace=wrap;connectable=0;strokeColor=inherit;overflow=hidden;fillColor=#3399FF;top=0;left=0;bottom=0;right=0;pointerEvents=1;fontSize=12;align=left;fontColor=#FFFFFF;gradientColor=none;spacingLeft=10;spacingRight=4;" parent="Ai2TTvlaKjhkr6nmEyGM-0" vertex="1">
          <mxGeometry width="180" height="32" as="geometry">
            <mxRectangle width="180" height="32" as="alternateBounds" />
          </mxGeometry>
        </mxCell>
        <mxCell id="F--JvnuP-JdAPcl4DWBi-5" value="" style="shape=tableRow;horizontal=0;startSize=0;swimlaneHead=0;swimlaneBody=0;strokeColor=inherit;top=0;left=0;bottom=0;right=0;collapsible=0;dropTarget=0;fillColor=none;points=[[0,0.5],[1,0.5]];portConstraint=eastwest;fontSize=12;" parent="F--JvnuP-JdAPcl4DWBi-0" vertex="1">
          <mxGeometry y="83" width="180" height="31" as="geometry" />
        </mxCell>
        <mxCell id="F--JvnuP-JdAPcl4DWBi-6" value="API" style="shape=partialRectangle;html=1;whiteSpace=wrap;connectable=0;strokeColor=inherit;overflow=hidden;fillColor=#52a2d8;top=0;left=0;bottom=0;right=0;pointerEvents=1;fontSize=12;align=left;fontColor=#FFFFFF;gradientColor=none;spacingLeft=10;spacingRight=4;" parent="F--JvnuP-JdAPcl4DWBi-5" vertex="1">
          <mxGeometry width="180" height="31" as="geometry">
            <mxRectangle width="180" height="31" as="alternateBounds" />
          </mxGeometry>
        </mxCell>
        <mxCell id="F--JvnuP-JdAPcl4DWBi-9" value="" style="shape=tableRow;horizontal=0;startSize=0;swimlaneHead=0;swimlaneBody=0;strokeColor=inherit;top=0;left=0;bottom=0;right=0;collapsible=0;dropTarget=0;fillColor=none;points=[[0,0.5],[1,0.5]];portConstraint=eastwest;fontSize=12;" parent="F--JvnuP-JdAPcl4DWBi-0" vertex="1">
          <mxGeometry y="114" width="180" height="32" as="geometry" />
        </mxCell>
        <mxCell id="F--JvnuP-JdAPcl4DWBi-10" value="Sistema Externo" style="shape=partialRectangle;html=1;whiteSpace=wrap;connectable=0;strokeColor=inherit;overflow=hidden;fillColor=#6b6477;top=0;left=0;bottom=0;right=0;pointerEvents=1;fontSize=12;align=left;fontColor=#FFFFFF;gradientColor=none;spacingLeft=10;spacingRight=4;" parent="F--JvnuP-JdAPcl4DWBi-9" vertex="1">
          <mxGeometry width="180" height="32" as="geometry">
            <mxRectangle width="180" height="32" as="alternateBounds" />
          </mxGeometry>
        </mxCell>
        <mxCell id="F--JvnuP-JdAPcl4DWBi-3" value="" style="shape=tableRow;horizontal=0;startSize=0;swimlaneHead=0;swimlaneBody=0;strokeColor=inherit;top=0;left=0;bottom=0;right=0;collapsible=0;dropTarget=0;fillColor=none;points=[[0,0.5],[1,0.5]];portConstraint=eastwest;fontSize=12;" parent="F--JvnuP-JdAPcl4DWBi-0" vertex="1">
          <mxGeometry y="146" width="180" height="32" as="geometry" />
        </mxCell>
        <mxCell id="F--JvnuP-JdAPcl4DWBi-4" value="Banco de Dados" style="shape=partialRectangle;html=1;whiteSpace=wrap;connectable=0;strokeColor=inherit;overflow=hidden;fillColor=#67AB9F;top=0;left=0;bottom=0;right=0;pointerEvents=1;fontSize=12;align=left;fontColor=#FFFFFF;gradientColor=none;spacingLeft=10;spacingRight=4;" parent="F--JvnuP-JdAPcl4DWBi-3" vertex="1">
          <mxGeometry width="180" height="32" as="geometry">
            <mxRectangle width="180" height="32" as="alternateBounds" />
          </mxGeometry>
        </mxCell>
        <mxCell id="F--JvnuP-JdAPcl4DWBi-16" value="Http Rest: Json" style="edgeStyle=orthogonalEdgeStyle;rounded=0;orthogonalLoop=1;jettySize=auto;html=1;dashed=1;dashPattern=8 8;exitX=1;exitY=0.5;exitDx=0;exitDy=0;exitPerimeter=0;" parent="1dNAwvJjR2Vt91CnmCib-1" source="Ai2TTvlaKjhkr6nmEyGM-2" target="F--JvnuP-JdAPcl4DWBi-15" edge="1">
          <mxGeometry x="-0.0273" y="10" relative="1" as="geometry">
            <Array as="points">
              <mxPoint x="323" y="446" />
            </Array>
            <mxPoint as="offset" />
          </mxGeometry>
        </mxCell>
        <mxCell id="Ai2TTvlaKjhkr6nmEyGM-3" style="edgeStyle=orthogonalEdgeStyle;rounded=0;orthogonalLoop=1;jettySize=auto;html=1;dashed=1;dashPattern=8 8;" parent="1dNAwvJjR2Vt91CnmCib-1" source="F--JvnuP-JdAPcl4DWBi-14" target="Ai2TTvlaKjhkr6nmEyGM-2" edge="1">
          <mxGeometry relative="1" as="geometry" />
        </mxCell>
        <object placeholders="1" c4Name="Security Manager" c4Type="Usuário" c4Description="Mantem e Audita os mecanismos de segurança." label="&lt;font style=&quot;font-size: 16px&quot;&gt;&lt;b&gt;%c4Name%&lt;/b&gt;&lt;/font&gt;&lt;div&gt;[%c4Type%]&lt;/div&gt;&lt;br&gt;&lt;div&gt;&lt;font style=&quot;font-size: 11px&quot;&gt;&lt;font color=&quot;#cccccc&quot;&gt;%c4Description%&lt;/font&gt;&lt;/div&gt;" id="F--JvnuP-JdAPcl4DWBi-14">
          <mxCell style="html=1;fontSize=11;dashed=0;whiteSpace=wrap;fillColor=#083F75;strokeColor=#06315C;fontColor=#ffffff;shape=mxgraph.c4.person2;align=center;metaEdit=1;points=[[0.5,0,0],[1,0.5,0],[1,0.75,0],[0.75,1,0],[0.5,1,0],[0.25,1,0],[0,0.75,0],[0,0.5,0]];resizable=0;" parent="1dNAwvJjR2Vt91CnmCib-1" vertex="1">
            <mxGeometry x="107" y="42" width="200" height="180" as="geometry" />
          </mxCell>
        </object>
        <mxCell id="F--JvnuP-JdAPcl4DWBi-18" value="Autoriza" style="edgeStyle=orthogonalEdgeStyle;rounded=0;orthogonalLoop=1;jettySize=auto;html=1;entryX=0;entryY=0.5;entryDx=0;entryDy=0;entryPerimeter=0;dashed=1;dashPattern=8 8;" parent="1dNAwvJjR2Vt91CnmCib-1" source="F--JvnuP-JdAPcl4DWBi-15" target="F--JvnuP-JdAPcl4DWBi-17" edge="1">
          <mxGeometry x="-1" y="-766" relative="1" as="geometry">
            <mxPoint x="-233" y="-36" as="offset" />
          </mxGeometry>
        </mxCell>
        <mxCell id="F--JvnuP-JdAPcl4DWBi-25" value="Integrar: sdk" style="edgeLabel;html=1;align=center;verticalAlign=middle;resizable=0;points=[];" parent="F--JvnuP-JdAPcl4DWBi-18" vertex="1" connectable="0">
          <mxGeometry x="0.3072" y="-2" relative="1" as="geometry">
            <mxPoint x="-45" y="-18" as="offset" />
          </mxGeometry>
        </mxCell>
        <mxCell id="F--JvnuP-JdAPcl4DWBi-22" value="Persiste / &lt;br&gt;Recupera" style="edgeStyle=orthogonalEdgeStyle;rounded=0;orthogonalLoop=1;jettySize=auto;html=1;dashed=1;dashPattern=8 8;" parent="1dNAwvJjR2Vt91CnmCib-1" source="F--JvnuP-JdAPcl4DWBi-15" target="F--JvnuP-JdAPcl4DWBi-20" edge="1">
          <mxGeometry relative="1" as="geometry">
            <Array as="points">
              <mxPoint x="558" y="560" />
              <mxPoint x="495" y="560" />
            </Array>
          </mxGeometry>
        </mxCell>
        <object placeholders="1" c4Name="Gerenciador Servidor Identidade" c4Type="API" c4Description="Gerenciador do Servidor de Identidade integrado ao Keycloak." label="&lt;font style=&quot;font-size: 16px&quot;&gt;&lt;b&gt;%c4Name%&lt;/b&gt;&lt;/font&gt;&lt;div&gt;[%c4Type%]&lt;/div&gt;&lt;br&gt;&lt;div&gt;&lt;font style=&quot;font-size: 11px&quot;&gt;&lt;font&gt;%c4Description%&lt;/font&gt;&lt;/font&gt;&lt;/div&gt;" id="F--JvnuP-JdAPcl4DWBi-15">
          <mxCell style="rounded=1;whiteSpace=wrap;html=1;labelBackgroundColor=none;fillColor=#52A2D8;fontColor=#FFFFFF;align=center;arcSize=10;strokeColor=#0D5091;metaEdit=1;resizable=0;points=[[0.25,0,0],[0.5,0,0],[0.75,0,0],[1,0.25,0],[1,0.5,0],[1,0.75,0],[0.75,1,0],[0.5,1,0],[0.25,1,0],[0,0.75,0],[0,0.5,0],[0,0.25,0]];" parent="1dNAwvJjR2Vt91CnmCib-1" vertex="1">
            <mxGeometry x="438" y="386" width="240" height="120" as="geometry" />
          </mxCell>
        </object>
        <object placeholders="1" c4Name="Keycloak" c4Type="Sistema Externo" c4Description="Servidor de Identidade" label="&lt;font style=&quot;font-size: 16px&quot;&gt;&lt;b&gt;%c4Name%&lt;/b&gt;&lt;/font&gt;&lt;div&gt;[%c4Type%]&lt;/div&gt;&lt;br&gt;&lt;div&gt;&lt;font style=&quot;font-size: 11px&quot;&gt;&lt;font color=&quot;#cccccc&quot;&gt;%c4Description%&lt;/font&gt;&lt;/div&gt;" id="F--JvnuP-JdAPcl4DWBi-17">
          <mxCell style="rounded=1;whiteSpace=wrap;html=1;labelBackgroundColor=none;fillColor=#8C8496;fontColor=#ffffff;align=center;arcSize=10;strokeColor=#736782;metaEdit=1;resizable=0;points=[[0.25,0,0],[0.5,0,0],[0.75,0,0],[1,0.25,0],[1,0.5,0],[1,0.75,0],[0.75,1,0],[0.5,1,0],[0.25,1,0],[0,0.75,0],[0,0.5,0],[0,0.25,0]];" parent="1dNAwvJjR2Vt91CnmCib-1" vertex="1">
            <mxGeometry x="846" y="386" width="240" height="120" as="geometry" />
          </mxCell>
        </object>
        <object placeholders="1" c4Type="Banco de Dados" c4Container="Container" c4Technology="PostgreSQL" c4Description="Servidor de Banco de Dados" label="&lt;font style=&quot;font-size: 16px&quot;&gt;&lt;b&gt;%c4Type%&lt;/b&gt;&lt;/font&gt;&lt;div&gt;[%c4Container%:&amp;nbsp;%c4Technology%]&lt;/div&gt;&lt;br&gt;&lt;div&gt;&lt;font style=&quot;font-size: 11px&quot;&gt;&lt;font color=&quot;#E6E6E6&quot;&gt;%c4Description%&lt;/font&gt;&lt;/div&gt;" id="F--JvnuP-JdAPcl4DWBi-20">
          <mxCell style="shape=cylinder3;size=15;whiteSpace=wrap;html=1;boundedLbl=1;rounded=0;labelBackgroundColor=none;fillColor=#67AB9F;fontSize=12;align=center;strokeColor=#E6E6E6;metaEdit=1;points=[[0.5,0,0],[1,0.25,0],[1,0.5,0],[1,0.75,0],[0.5,1,0],[0,0.75,0],[0,0.5,0],[0,0.25,0]];resizable=0;" parent="1dNAwvJjR2Vt91CnmCib-1" vertex="1">
            <mxGeometry x="375" y="671" width="240" height="120" as="geometry" />
          </mxCell>
        </object>
        <object placeholders="1" c4Name="Aplicativo WEB" c4Type="App WEB" c4Description="Aplicação Frontend que acessa as APIs de gestão do Sistema" label="&lt;font style=&quot;font-size: 16px&quot;&gt;&lt;b&gt;%c4Name%&lt;/b&gt;&lt;/font&gt;&lt;div&gt;[%c4Type%]&lt;/div&gt;&lt;br&gt;&lt;div&gt;&lt;font style=&quot;font-size: 11px&quot;&gt;&lt;font color=&quot;#cccccc&quot;&gt;%c4Description%&lt;/font&gt;&lt;/div&gt;" id="Ai2TTvlaKjhkr6nmEyGM-2">
          <mxCell style="rounded=1;whiteSpace=wrap;html=1;labelBackgroundColor=none;fillColor=#3399FF;fontColor=#ffffff;align=center;arcSize=10;strokeColor=#0D5091;metaEdit=1;resizable=0;points=[[0.25,0,0],[0.5,0,0],[0.75,0,0],[1,0.25,0],[1,0.5,0],[1,0.75,0],[0.75,1,0],[0.5,1,0],[0.25,1,0],[0,0.75,0],[0,0.5,0],[0,0.25,0]];" parent="1dNAwvJjR2Vt91CnmCib-1" vertex="1">
            <mxGeometry x="87" y="386" width="240" height="120" as="geometry" />
          </mxCell>
        </object>
      </root>
    </mxGraphModel>
  </diagram>
  <diagram id="dkpkI8Sc5grhIyCRcAwo" name="Container - Controlador">
    <mxGraphModel dx="794" dy="456" grid="1" gridSize="10" guides="1" tooltips="1" connect="1" arrows="1" fold="1" page="1" pageScale="1" pageWidth="827" pageHeight="1169" math="0" shadow="0">
      <root>
        <mxCell id="0" />
        <mxCell id="1" parent="0" />
      </root>
    </mxGraphModel>
  </diagram>
  <diagram name="Gerenciador - Keycloak" id="K3_bYEQb9XyduSZMrKUJ">
    <mxGraphModel dx="1900" dy="1080" grid="0" gridSize="10" guides="1" tooltips="1" connect="1" arrows="1" fold="1" page="1" pageScale="1" pageWidth="1169" pageHeight="827" background="none" math="0" shadow="0">
      <root>
        <mxCell id="0" />
        <mxCell id="1" parent="0" />
        <object placeholders="1" c4Name="Keycloak" c4Type="Identity Server" c4Description="Software System" label="&lt;font style=&quot;font-size: 16px&quot;&gt;&lt;b&gt;%c4Name%&lt;/b&gt;&lt;/font&gt;&lt;div&gt;[%c4Type%]&lt;/div&gt;&lt;br&gt;&lt;div&gt;&lt;font style=&quot;font-size: 11px&quot;&gt;&lt;font&gt;%c4Description%&lt;/font&gt;&lt;/font&gt;&lt;/div&gt;" id="gde5_JYmTBniX0Sx8_jm-18">
          <mxCell style="rounded=1;whiteSpace=wrap;html=1;labelBackgroundColor=none;align=center;arcSize=10;strokeColor=#0066CC;metaEdit=1;resizable=0;points=[[0.25,0,0],[0.5,0,0],[0.75,0,0],[1,0.25,0],[1,0.5,0],[1,0.75,0],[0.75,1,0],[0.5,1,0],[0.25,1,0],[0,0.75,0],[0,0.5,0],[0,0.25,0]];fontColor=#FFFFFF;fillColor=#808080;" parent="1" vertex="1">
            <mxGeometry x="766" y="245" width="240" height="120" as="geometry" />
          </mxCell>
        </object>
        <object placeholders="1" c4Type="Relationship" id="gde5_JYmTBniX0Sx8_jm-24">
          <mxCell style="endArrow=blockThin;html=1;fontSize=10;strokeWidth=1;endFill=1;strokeColor=#FFFFFF;elbow=vertical;metaEdit=1;endSize=14;startSize=14;jumpStyle=arc;jumpSize=16;rounded=0;edgeStyle=orthogonalEdgeStyle;dashed=1;entryX=0.5;entryY=0;entryDx=0;entryDy=0;entryPerimeter=0;" parent="1" source="gde5_JYmTBniX0Sx8_jm-14" target="gde5_JYmTBniX0Sx8_jm-26" edge="1">
            <mxGeometry width="240" relative="1" as="geometry">
              <mxPoint x="526.4100000000001" y="463.94" as="sourcePoint" />
              <mxPoint x="530" y="503" as="targetPoint" />
              <Array as="points" />
            </mxGeometry>
          </mxCell>
        </object>
        <mxCell id="gde5_JYmTBniX0Sx8_jm-25" value="Gravar Log" style="edgeLabel;html=1;align=center;verticalAlign=middle;resizable=0;points=[];labelBackgroundColor=none;" parent="gde5_JYmTBniX0Sx8_jm-24" vertex="1" connectable="0">
          <mxGeometry x="0.3224" y="-3" relative="1" as="geometry">
            <mxPoint x="-31" y="-29" as="offset" />
          </mxGeometry>
        </mxCell>
        <object placeholders="1" c4Type="Database" c4Container="DB Server" c4Technology="PostgreSQL " c4Description="Identity Solution Database" label="&lt;font style=&quot;font-size: 16px&quot;&gt;&lt;b&gt;%c4Type%&lt;/b&gt;&lt;/font&gt;&lt;div&gt;[%c4Container%:&amp;nbsp;%c4Technology%]&lt;/div&gt;&lt;br&gt;&lt;div&gt;&lt;font style=&quot;font-size: 11px&quot;&gt;&lt;font color=&quot;#E6E6E6&quot;&gt;%c4Description%&lt;/font&gt;&lt;/div&gt;" id="gde5_JYmTBniX0Sx8_jm-26">
          <mxCell style="shape=cylinder3;size=15;whiteSpace=wrap;html=1;boundedLbl=1;rounded=0;labelBackgroundColor=none;fillColor=#006666;fontSize=12;fontColor=#ffffff;align=center;metaEdit=1;points=[[0.5,0,0],[1,0.25,0],[1,0.5,0],[1,0.75,0],[0.5,1,0],[0,0.75,0],[0,0.5,0],[0,0.25,0]];resizable=0;" parent="1" vertex="1">
            <mxGeometry x="388" y="551" width="240" height="120" as="geometry" />
          </mxCell>
        </object>
        <mxCell id="gde5_JYmTBniX0Sx8_jm-31" value="" style="endArrow=classic;html=1;rounded=0;dashed=1;dashPattern=8 8;entryX=1;entryY=0.5;entryDx=0;entryDy=0;entryPerimeter=0;exitX=0.125;exitY=0.8;exitDx=0;exitDy=0;exitPerimeter=0;strokeColor=#4D4D4D;" parent="1" source="gde5_JYmTBniX0Sx8_jm-14" target="Uy023GRekjQbLyXGEq9n-1" edge="1">
          <mxGeometry width="50" height="50" relative="1" as="geometry">
            <mxPoint x="280" y="571" as="sourcePoint" />
            <mxPoint x="174.20000000000005" y="490.94000000000005" as="targetPoint" />
          </mxGeometry>
        </mxCell>
        <mxCell id="gde5_JYmTBniX0Sx8_jm-32" value="Notificar Credencial:&lt;br&gt;id e secret para Autorizacao" style="edgeLabel;html=1;align=center;verticalAlign=middle;resizable=0;points=[];labelBackgroundColor=none;" parent="gde5_JYmTBniX0Sx8_jm-31" vertex="1" connectable="0">
          <mxGeometry x="-0.149" y="-2" relative="1" as="geometry">
            <mxPoint x="-67.37" y="-15.399999999999999" as="offset" />
          </mxGeometry>
        </mxCell>
        <mxCell id="gde5_JYmTBniX0Sx8_jm-37" value="" style="endArrow=block;html=1;rounded=0;entryX=0;entryY=0.5;entryDx=0;entryDy=0;entryPerimeter=0;endFill=1;strokeWidth=2;exitX=1;exitY=0.75;exitDx=0;exitDy=0;exitPerimeter=0;strokeColor=#4D4D4D;" parent="1" source="wmYi1_UyyzeWxztGhp03-1" target="gde5_JYmTBniX0Sx8_jm-14" edge="1">
          <mxGeometry width="50" height="50" relative="1" as="geometry">
            <mxPoint x="241.20000000000005" y="304.5999999999999" as="sourcePoint" />
            <mxPoint x="453" y="347" as="targetPoint" />
            <Array as="points" />
          </mxGeometry>
        </mxCell>
        <mxCell id="gde5_JYmTBniX0Sx8_jm-38" value="Criar Domínios,&lt;br style=&quot;border-color: var(--border-color);&quot;&gt;&lt;span style=&quot;&quot;&gt;&amp;nbsp;Usuários e Escopos&lt;/span&gt;" style="edgeLabel;html=1;align=center;verticalAlign=middle;resizable=0;points=[];labelBackgroundColor=none;" parent="gde5_JYmTBniX0Sx8_jm-37" vertex="1" connectable="0">
          <mxGeometry x="-0.149" y="-2" relative="1" as="geometry">
            <mxPoint x="7" y="-22" as="offset" />
          </mxGeometry>
        </mxCell>
        <mxCell id="gde5_JYmTBniX0Sx8_jm-39" value="" style="endArrow=block;html=1;rounded=0;exitX=1;exitY=0.5;exitDx=0;exitDy=0;exitPerimeter=0;endFill=1;entryX=0;entryY=0.5;entryDx=0;entryDy=0;entryPerimeter=0;strokeWidth=2;strokeColor=#4D4D4D;" parent="1" source="gde5_JYmTBniX0Sx8_jm-14" target="gde5_JYmTBniX0Sx8_jm-18" edge="1">
          <mxGeometry width="50" height="50" relative="1" as="geometry">
            <mxPoint x="299" y="340" as="sourcePoint" />
            <mxPoint x="435" y="341" as="targetPoint" />
          </mxGeometry>
        </mxCell>
        <mxCell id="gde5_JYmTBniX0Sx8_jm-40" value="Registrar Keycloak" style="edgeLabel;html=1;align=center;verticalAlign=middle;resizable=0;points=[];labelBackgroundColor=none;" parent="gde5_JYmTBniX0Sx8_jm-39" vertex="1" connectable="0">
          <mxGeometry x="-0.149" y="-2" relative="1" as="geometry">
            <mxPoint x="4" y="-20" as="offset" />
          </mxGeometry>
        </mxCell>
        <mxCell id="gde5_JYmTBniX0Sx8_jm-47" value="" style="endArrow=block;html=1;rounded=0;endFill=1;entryX=0.5;entryY=0;entryDx=0;entryDy=0;entryPerimeter=0;strokeWidth=2;exitX=0.5;exitY=1;exitDx=0;exitDy=0;exitPerimeter=0;strokeColor=#4D4D4D;" parent="1" source="gde5_JYmTBniX0Sx8_jm-14" target="gde5_JYmTBniX0Sx8_jm-26" edge="1">
          <mxGeometry width="50" height="50" relative="1" as="geometry">
            <mxPoint x="547" y="386" as="sourcePoint" />
            <mxPoint x="774" y="291" as="targetPoint" />
            <Array as="points" />
          </mxGeometry>
        </mxCell>
        <mxCell id="gde5_JYmTBniX0Sx8_jm-48" value="Manter &lt;br&gt;Credenciais" style="edgeLabel;html=1;align=center;verticalAlign=middle;resizable=0;points=[];labelBackgroundColor=none;" parent="gde5_JYmTBniX0Sx8_jm-47" vertex="1" connectable="0">
          <mxGeometry x="-0.149" y="-2" relative="1" as="geometry">
            <mxPoint x="52" y="-1" as="offset" />
          </mxGeometry>
        </mxCell>
        <object placeholders="1" c4Type="Gerenciador" c4Container="Container" c4Technology=".NET API" c4Description="Custom Identity Solution API" label="&lt;font style=&quot;font-size: 16px&quot;&gt;&lt;b&gt;%c4Type%&lt;/b&gt;&lt;/font&gt;&lt;div&gt;[%c4Container%:&amp;nbsp;%c4Technology%]&lt;/div&gt;&lt;br&gt;&lt;div&gt;&lt;font style=&quot;font-size: 11px&quot;&gt;&lt;font&gt;%c4Description%&lt;/font&gt;&lt;/font&gt;&lt;/div&gt;" id="gde5_JYmTBniX0Sx8_jm-14">
          <mxCell style="shape=hexagon;size=50;perimeter=hexagonPerimeter2;whiteSpace=wrap;html=1;fixedSize=1;rounded=1;labelBackgroundColor=none;fontSize=12;align=center;metaEdit=1;points=[[0.5,0,0],[1,0.25,0],[1,0.5,0],[1,0.75,0],[0.5,1,0],[0,0.75,0],[0,0.5,0],[0,0.25,0]];resizable=0;fontColor=#FFFFFF;fillColor=#004C99;" parent="1" vertex="1">
            <mxGeometry x="408" y="220" width="200" height="170" as="geometry" />
          </mxCell>
        </object>
        <object placeholders="1" c4Name="Usuário Comum" c4Type="Person" c4Description="Security Manager" label="&lt;b&gt;%c4Name%&lt;/b&gt;&lt;div&gt;[%c4Type%]&lt;/div&gt;&lt;br&gt;&lt;div&gt;%c4Description%&lt;/div&gt;" id="wmYi1_UyyzeWxztGhp03-1">
          <mxCell style="html=1;dashed=0;whitespace=wrap;shape=mxgraph.c4.person;align=center;metaEdit=1;points=[[0.5,0,0],[1,0.5,0],[1,0.75,0],[0.75,1,0],[0.5,1,0],[0.25,1,0],[0,0.75,0],[0,0.5,0]];metaData={&quot;c4Type&quot;:{&quot;editable&quot;:false}};fillColor=#CCCCCC;" parent="1" vertex="1">
            <mxGeometry x="58" y="198" width="170" height="140" as="geometry" />
          </mxCell>
        </object>
        <object placeholders="1" c4Name="Usuário Comum" c4Type="Person" c4Description="Developer Client" label="&lt;b&gt;%c4Name%&lt;/b&gt;&lt;div&gt;[%c4Type%]&lt;/div&gt;&lt;br&gt;&lt;div&gt;%c4Description%&lt;/div&gt;" id="Uy023GRekjQbLyXGEq9n-1">
          <mxCell style="html=1;dashed=0;whitespace=wrap;shape=mxgraph.c4.person;align=center;metaEdit=1;points=[[0.5,0,0],[1,0.5,0],[1,0.75,0],[0.75,1,0],[0.5,1,0],[0.25,1,0],[0,0.75,0],[0,0.5,0]];metaData={&quot;c4Type&quot;:{&quot;editable&quot;:false}};fillColor=#CCCCCC;" parent="1" vertex="1">
            <mxGeometry x="58" y="483" width="170" height="140" as="geometry" />
          </mxCell>
        </object>
        <mxCell id="2Sc4zUd-33cEG3LihwE4-1" value="" style="rounded=1;whiteSpace=wrap;html=1;strokeColor=#000000;fontColor=#000000;fillColor=none;arcSize=10;" parent="1" vertex="1">
          <mxGeometry x="29" y="138" width="1018" height="590" as="geometry" />
        </mxCell>
      </root>
    </mxGraphModel>
  </diagram>
  <diagram id="f4a6yHSYucQr9Bt7lSjK" name="Controlador - Token Authorization Server">
    <mxGraphModel dx="1422" dy="848" grid="0" gridSize="10" guides="1" tooltips="1" connect="1" arrows="1" fold="1" page="1" pageScale="1" pageWidth="1169" pageHeight="827" background="none" math="0" shadow="0">
      <root>
        <mxCell id="0" />
        <mxCell id="1" parent="0" />
        <mxCell id="cyL-ucnyZWNV83XnU9dM-1" value="" style="rounded=1;whiteSpace=wrap;html=1;strokeColor=#000000;fontColor=#000000;fillColor=none;arcSize=10;" vertex="1" parent="1">
          <mxGeometry x="29" y="59" width="1097" height="729" as="geometry" />
        </mxCell>
        <object placeholders="1" c4Name="Keycloak" c4Type="Identity Server" c4Description="Software System" label="&lt;font style=&quot;font-size: 16px&quot;&gt;&lt;b&gt;%c4Name%&lt;/b&gt;&lt;/font&gt;&lt;div&gt;[%c4Type%]&lt;/div&gt;&lt;br&gt;&lt;div&gt;&lt;font style=&quot;font-size: 11px&quot;&gt;&lt;font&gt;%c4Description%&lt;/font&gt;&lt;/font&gt;&lt;/div&gt;" id="oD3-0SivE-OBAXUZqHuK-1">
          <mxCell style="rounded=1;whiteSpace=wrap;html=1;labelBackgroundColor=none;align=center;arcSize=10;strokeColor=#0066CC;metaEdit=1;resizable=0;points=[[0.25,0,0],[0.5,0,0],[0.75,0,0],[1,0.25,0],[1,0.5,0],[1,0.75,0],[0.75,1,0],[0.5,1,0],[0.25,1,0],[0,0.75,0],[0,0.5,0],[0,0.25,0]];fillColor=#808080;fontColor=#FFFFFF;" parent="1" vertex="1">
            <mxGeometry x="852" y="363" width="240" height="120" as="geometry" />
          </mxCell>
        </object>
        <object placeholders="1" c4Type="Relationship" id="oD3-0SivE-OBAXUZqHuK-2">
          <mxCell style="endArrow=blockThin;html=1;fontSize=10;strokeWidth=1;endFill=1;strokeColor=#FFFFFF;elbow=vertical;metaEdit=1;endSize=14;startSize=14;jumpStyle=arc;jumpSize=16;rounded=0;edgeStyle=orthogonalEdgeStyle;dashed=1;entryX=0.4;entryY=0;entryDx=0;entryDy=0;entryPerimeter=0;exitX=0.405;exitY=1.001;exitDx=0;exitDy=0;exitPerimeter=0;fontColor=#FFFFFF;" parent="1" source="oD3-0SivE-OBAXUZqHuK-17" target="oD3-0SivE-OBAXUZqHuK-4" edge="1">
            <mxGeometry width="240" relative="1" as="geometry">
              <mxPoint x="622.4100000000001" y="567.94" as="sourcePoint" />
              <mxPoint x="562" y="667" as="targetPoint" />
              <Array as="points" />
            </mxGeometry>
          </mxCell>
        </object>
        <mxCell id="oD3-0SivE-OBAXUZqHuK-3" value="Gravar Log" style="edgeLabel;html=1;align=center;verticalAlign=middle;resizable=0;points=[];labelBackgroundColor=none;" parent="oD3-0SivE-OBAXUZqHuK-2" vertex="1" connectable="0">
          <mxGeometry x="0.3224" y="-3" relative="1" as="geometry">
            <mxPoint x="-16" y="-32.17" as="offset" />
          </mxGeometry>
        </mxCell>
        <object placeholders="1" c4Type="Database" c4Container="DB Server" c4Technology="PostgreSQL " c4Description="Identity Solution Database" label="&lt;font style=&quot;font-size: 16px&quot;&gt;&lt;b&gt;%c4Type%&lt;/b&gt;&lt;/font&gt;&lt;div&gt;[%c4Container%:&amp;nbsp;%c4Technology%]&lt;/div&gt;&lt;br&gt;&lt;div&gt;&lt;font style=&quot;font-size: 11px&quot;&gt;&lt;font&gt;%c4Description%&lt;/font&gt;&lt;/font&gt;&lt;/div&gt;" id="oD3-0SivE-OBAXUZqHuK-4">
          <mxCell style="shape=cylinder3;size=15;whiteSpace=wrap;html=1;boundedLbl=1;rounded=0;labelBackgroundColor=none;fillColor=#006666;fontSize=12;align=center;strokeColor=#E6E6E6;metaEdit=1;points=[[0.5,0,0],[1,0.25,0],[1,0.5,0],[1,0.75,0],[0.5,1,0],[0,0.75,0],[0,0.5,0],[0,0.25,0]];resizable=0;fontColor=#FFFFFF;" parent="1" vertex="1">
            <mxGeometry x="450" y="634" width="240" height="120" as="geometry" />
          </mxCell>
        </object>
        <mxCell id="oD3-0SivE-OBAXUZqHuK-8" value="" style="endArrow=block;html=1;rounded=0;exitX=1;exitY=0.5;exitDx=0;exitDy=0;exitPerimeter=0;endFill=1;entryX=-0.005;entryY=0.434;entryDx=0;entryDy=0;entryPerimeter=0;strokeWidth=2;strokeColor=#4D4D4D;fontColor=#FFFFFF;" parent="1" source="oD3-0SivE-OBAXUZqHuK-17" target="oD3-0SivE-OBAXUZqHuK-1" edge="1">
          <mxGeometry width="50" height="50" relative="1" as="geometry">
            <mxPoint x="395" y="444" as="sourcePoint" />
            <mxPoint x="531" y="445" as="targetPoint" />
          </mxGeometry>
        </mxCell>
        <mxCell id="oD3-0SivE-OBAXUZqHuK-9" value="Solicitar Autorizacao" style="edgeLabel;html=1;align=center;verticalAlign=middle;resizable=0;points=[];labelBackgroundColor=none;" parent="oD3-0SivE-OBAXUZqHuK-8" vertex="1" connectable="0">
          <mxGeometry x="-0.149" y="-2" relative="1" as="geometry">
            <mxPoint x="4" y="-11" as="offset" />
          </mxGeometry>
        </mxCell>
        <mxCell id="oD3-0SivE-OBAXUZqHuK-12" value="" style="endArrow=classic;html=1;rounded=0;strokeColor=#FFFFFF;exitX=0;exitY=0.75;exitDx=0;exitDy=0;exitPerimeter=0;dashed=1;dashPattern=8 8;entryX=0.937;entryY=0.632;entryDx=0;entryDy=0;entryPerimeter=0;fontColor=#FFFFFF;" parent="1" source="oD3-0SivE-OBAXUZqHuK-1" target="oD3-0SivE-OBAXUZqHuK-17" edge="1">
          <mxGeometry width="50" height="50" relative="1" as="geometry">
            <mxPoint x="556" y="490" as="sourcePoint" />
            <mxPoint x="654" y="488" as="targetPoint" />
            <Array as="points" />
          </mxGeometry>
        </mxCell>
        <mxCell id="oD3-0SivE-OBAXUZqHuK-13" value="Token" style="edgeLabel;html=1;align=center;verticalAlign=middle;resizable=0;points=[];labelBackgroundColor=none;" parent="oD3-0SivE-OBAXUZqHuK-12" vertex="1" connectable="0">
          <mxGeometry x="-0.149" y="-2" relative="1" as="geometry">
            <mxPoint x="-29" y="-9" as="offset" />
          </mxGeometry>
        </mxCell>
        <mxCell id="oD3-0SivE-OBAXUZqHuK-15" value="" style="endArrow=block;html=1;rounded=0;endFill=1;strokeWidth=2;exitX=0.5;exitY=1;exitDx=0;exitDy=0;exitPerimeter=0;strokeColor=#4D4D4D;fontColor=#FFFFFF;" parent="1" source="oD3-0SivE-OBAXUZqHuK-17" edge="1">
          <mxGeometry width="50" height="50" relative="1" as="geometry">
            <mxPoint x="643" y="490" as="sourcePoint" />
            <mxPoint x="570" y="631" as="targetPoint" />
            <Array as="points" />
          </mxGeometry>
        </mxCell>
        <mxCell id="oD3-0SivE-OBAXUZqHuK-16" value="Manter &lt;br&gt;informações&amp;nbsp;&lt;br&gt;dos Users" style="edgeLabel;html=1;align=center;verticalAlign=middle;resizable=0;points=[];labelBackgroundColor=none;" parent="oD3-0SivE-OBAXUZqHuK-15" vertex="1" connectable="0">
          <mxGeometry x="-0.149" y="-2" relative="1" as="geometry">
            <mxPoint x="40.87" y="-3.03" as="offset" />
          </mxGeometry>
        </mxCell>
        <object placeholders="1" c4Type="Cotrolador" c4Container="Container" c4Technology=".NET API" c4Description="Custom Authorization Server" label="&lt;font style=&quot;font-size: 16px&quot;&gt;&lt;b&gt;%c4Type%&lt;/b&gt;&lt;/font&gt;&lt;div&gt;[%c4Container%:&amp;nbsp;%c4Technology%]&lt;/div&gt;&lt;br&gt;&lt;div&gt;&lt;font style=&quot;font-size: 11px&quot;&gt;&lt;font&gt;%c4Description%&lt;/font&gt;&lt;/font&gt;&lt;/div&gt;" id="oD3-0SivE-OBAXUZqHuK-17">
          <mxCell style="shape=hexagon;size=50;perimeter=hexagonPerimeter2;whiteSpace=wrap;html=1;fixedSize=1;rounded=1;labelBackgroundColor=none;fontSize=12;align=center;strokeColor=#E6E6E6;metaEdit=1;points=[[0.5,0,0],[1,0.25,0],[1,0.5,0],[1,0.75,0],[0.5,1,0],[0,0.75,0],[0,0.5,0],[0,0.25,0]];resizable=0;fillColor=#004C99;fontColor=#FFFFFF;" parent="1" vertex="1">
            <mxGeometry x="465" y="327" width="200" height="170" as="geometry" />
          </mxCell>
        </object>
        <mxCell id="oD3-0SivE-OBAXUZqHuK-18" value="" style="endArrow=block;html=1;rounded=0;endFill=1;entryX=0;entryY=0.5;entryDx=0;entryDy=0;entryPerimeter=0;strokeColor=#4D4D4D;strokeWidth=2;" parent="1" target="oD3-0SivE-OBAXUZqHuK-17" edge="1" source="MHXbBxOAOG0s3mENrcIE-3">
          <mxGeometry width="50" height="50" relative="1" as="geometry">
            <mxPoint x="253.00000000000023" y="395" as="sourcePoint" />
            <mxPoint x="923" y="441" as="targetPoint" />
          </mxGeometry>
        </mxCell>
        <mxCell id="oD3-0SivE-OBAXUZqHuK-19" value="Solictar Autorização" style="edgeLabel;html=1;align=center;verticalAlign=middle;resizable=0;points=[];labelBackgroundColor=none;" parent="oD3-0SivE-OBAXUZqHuK-18" vertex="1" connectable="0">
          <mxGeometry x="-0.149" y="-2" relative="1" as="geometry">
            <mxPoint x="4" y="-11" as="offset" />
          </mxGeometry>
        </mxCell>
        <mxCell id="oD3-0SivE-OBAXUZqHuK-21" value="" style="endArrow=classic;html=1;rounded=0;strokeColor=#FFFFFF;dashed=1;dashPattern=8 8;entryX=1;entryY=0.75;entryDx=0;entryDy=0;entryPerimeter=0;exitX=0.074;exitY=0.665;exitDx=0;exitDy=0;exitPerimeter=0;" parent="1" source="oD3-0SivE-OBAXUZqHuK-17" edge="1">
          <mxGeometry width="50" height="50" relative="1" as="geometry">
            <mxPoint x="531" y="440" as="sourcePoint" />
            <mxPoint x="253.00000000000023" y="440" as="targetPoint" />
            <Array as="points" />
          </mxGeometry>
        </mxCell>
        <mxCell id="oD3-0SivE-OBAXUZqHuK-22" value="Token" style="edgeLabel;html=1;align=center;verticalAlign=middle;resizable=0;points=[];labelBackgroundColor=none;" parent="oD3-0SivE-OBAXUZqHuK-21" vertex="1" connectable="0">
          <mxGeometry x="-0.149" y="-2" relative="1" as="geometry">
            <mxPoint x="-29" y="-9" as="offset" />
          </mxGeometry>
        </mxCell>
        <mxCell id="y1dA6ctd7gwSLEFGB7a_-2" value="" style="endArrow=classic;html=1;rounded=0;dashed=1;dashPattern=8 8;exitX=0.5;exitY=1;exitDx=0;exitDy=0;exitPerimeter=0;strokeColor=#4D4D4D;entryX=0.5;entryY=0;entryDx=0;entryDy=0;entryPerimeter=0;" parent="1" source="dGcXGkDcriq3zLy5YOOI-1" target="MHXbBxOAOG0s3mENrcIE-3" edge="1">
          <mxGeometry width="50" height="50" relative="1" as="geometry">
            <mxPoint x="151" y="200" as="sourcePoint" />
            <mxPoint x="151" y="291" as="targetPoint" />
            <Array as="points" />
          </mxGeometry>
        </mxCell>
        <mxCell id="y1dA6ctd7gwSLEFGB7a_-3" value="Informar Credenciais/&lt;br&gt;Solicitar Autorização" style="edgeLabel;html=1;align=center;verticalAlign=middle;resizable=0;points=[];labelBackgroundColor=none;" parent="y1dA6ctd7gwSLEFGB7a_-2" vertex="1" connectable="0">
          <mxGeometry x="-0.149" y="-2" relative="1" as="geometry">
            <mxPoint x="64" y="16" as="offset" />
          </mxGeometry>
        </mxCell>
        <object placeholders="1" c4Name="Usuário Comum" c4Type="Person" c4Description="Developer Client" label="&lt;b&gt;%c4Name%&lt;/b&gt;&lt;div&gt;[%c4Type%]&lt;/div&gt;&lt;br&gt;&lt;div&gt;%c4Description%&lt;/div&gt;" id="dGcXGkDcriq3zLy5YOOI-1">
          <mxCell style="html=1;dashed=0;whitespace=wrap;shape=mxgraph.c4.person;align=center;metaEdit=1;points=[[0.5,0,0],[1,0.5,0],[1,0.75,0],[0.75,1,0],[0.5,1,0],[0.25,1,0],[0,0.75,0],[0,0.5,0]];metaData={&quot;c4Type&quot;:{&quot;editable&quot;:false}};fillColor=#CCCCCC;" vertex="1" parent="1">
            <mxGeometry x="72" y="86" width="166" height="140" as="geometry" />
          </mxCell>
        </object>
        <object placeholders="1" c4Name="Aplicação Cliente" c4Type="Container" c4Technology="APIs, Microservices,..." c4Description="Clients" label="&lt;b&gt;%c4Name%&lt;/b&gt;&lt;div&gt;[%c4Type%: %c4Technology%]&lt;/div&gt;&lt;br&gt;&lt;div&gt;%c4Description%&lt;/div&gt;" id="MHXbBxOAOG0s3mENrcIE-3">
          <mxCell style="rounded=1;whiteSpace=wrap;html=1;labelBackgroundColor=none;fontColor=#ffffff;align=center;arcSize=10;strokeColor=#78A8D8;metaEdit=1;metaData={&quot;c4Type&quot;:{&quot;editable&quot;:false}};points=[[0.25,0,0],[0.5,0,0],[0.75,0,0],[1,0.25,0],[1,0.5,0],[1,0.75,0],[0.75,1,0],[0.5,1,0],[0.25,1,0],[0,0.75,0],[0,0.5,0],[0,0.25,0]];fillColor=#004C99;" vertex="1" parent="1">
            <mxGeometry x="72" y="354" width="167" height="110" as="geometry" />
          </mxCell>
        </object>
      </root>
    </mxGraphModel>
  </diagram>
  <diagram id="egCFVIydDsNo-yWKC8ul" name="Consumir - Resource Server">
    <mxGraphModel dx="1422" dy="848" grid="0" gridSize="10" guides="1" tooltips="1" connect="1" arrows="1" fold="1" page="1" pageScale="1" pageWidth="1169" pageHeight="827" background="none" math="0" shadow="0">
      <root>
        <mxCell id="0" />
        <mxCell id="1" parent="0" />
        <mxCell id="YE-lILf96iDPaKeQuyv7-1" value="" style="rounded=1;whiteSpace=wrap;html=1;strokeColor=#000000;fontColor=#000000;arcSize=10;fillColor=none;" vertex="1" parent="1">
          <mxGeometry x="29" y="16" width="750" height="781" as="geometry" />
        </mxCell>
        <mxCell id="WNe1QRyRx5f_yva1SwZ5-13" value="" style="endArrow=block;html=1;rounded=0;exitX=1.006;exitY=0.645;exitDx=0;exitDy=0;exitPerimeter=0;endFill=1;entryX=0.049;entryY=0.409;entryDx=0;entryDy=0;entryPerimeter=0;strokeColor=#4D4D4D;" parent="1" target="X4uhM3XwHNd5rl-uWIdL-1" edge="1" source="Lqu-rLG3yjOHErJIZXPH-1">
          <mxGeometry width="50" height="50" relative="1" as="geometry">
            <mxPoint x="250.00000000000023" y="431" as="sourcePoint" />
            <mxPoint x="497.20000000000005" y="432.6600000000001" as="targetPoint" />
          </mxGeometry>
        </mxCell>
        <mxCell id="WNe1QRyRx5f_yva1SwZ5-14" value="Solictar recurso[token]" style="edgeLabel;html=1;align=center;verticalAlign=middle;resizable=0;points=[];labelBackgroundColor=none;" parent="WNe1QRyRx5f_yva1SwZ5-13" vertex="1" connectable="0">
          <mxGeometry x="-0.149" y="-2" relative="1" as="geometry">
            <mxPoint x="4" y="-11" as="offset" />
          </mxGeometry>
        </mxCell>
        <mxCell id="WNe1QRyRx5f_yva1SwZ5-18" value="" style="endArrow=classic;html=1;rounded=0;dashed=1;dashPattern=8 8;exitX=0.5;exitY=1;exitDx=0;exitDy=0;exitPerimeter=0;entryX=0.5;entryY=0;entryDx=0;entryDy=0;entryPerimeter=0;strokeColor=#4D4D4D;" parent="1" source="x1ff1kiWAO7r3XLYhIyg-1" target="Lqu-rLG3yjOHErJIZXPH-1" edge="1">
          <mxGeometry width="50" height="50" relative="1" as="geometry">
            <mxPoint x="148" y="236" as="sourcePoint" />
            <mxPoint x="148" y="327" as="targetPoint" />
            <Array as="points" />
          </mxGeometry>
        </mxCell>
        <mxCell id="WNe1QRyRx5f_yva1SwZ5-19" value="Informar Credenciais/&lt;br&gt;Solicitar Autorização" style="edgeLabel;html=1;align=center;verticalAlign=middle;resizable=0;points=[];labelBackgroundColor=none;" parent="WNe1QRyRx5f_yva1SwZ5-18" vertex="1" connectable="0">
          <mxGeometry x="-0.149" y="-2" relative="1" as="geometry">
            <mxPoint x="67" y="-1" as="offset" />
          </mxGeometry>
        </mxCell>
        <object placeholders="1" c4Type="POC.api.pix" c4Container="Container" c4Technology=".NET API" c4Description="Resource Server" label="&lt;font style=&quot;font-size: 16px&quot;&gt;&lt;b&gt;%c4Type%&lt;/b&gt;&lt;/font&gt;&lt;div&gt;[%c4Container%:&amp;nbsp;%c4Technology%]&lt;/div&gt;&lt;br&gt;&lt;div&gt;&lt;font style=&quot;font-size: 11px&quot;&gt;&lt;font&gt;%c4Description%&lt;/font&gt;&lt;/font&gt;&lt;/div&gt;" id="X4uhM3XwHNd5rl-uWIdL-1">
          <mxCell style="shape=hexagon;size=50;perimeter=hexagonPerimeter2;whiteSpace=wrap;html=1;fixedSize=1;rounded=1;labelBackgroundColor=none;fontSize=12;align=center;strokeColor=#E6E6E6;metaEdit=1;points=[[0.5,0,0],[1,0.25,0],[1,0.5,0],[1,0.75,0],[0.5,1,0],[0,0.75,0],[0,0.5,0],[0,0.25,0]];resizable=0;fillColor=#004C99;fontColor=#FFFFFF;" parent="1" vertex="1">
            <mxGeometry x="487" y="363" width="200" height="170" as="geometry" />
          </mxCell>
        </object>
        <object placeholders="1" c4Type="POC.api.carteira" c4Container="Container" c4Technology=".NET API" c4Description="Resource Server" label="&lt;font style=&quot;font-size: 16px&quot;&gt;&lt;b&gt;%c4Type%&lt;/b&gt;&lt;/font&gt;&lt;div&gt;[%c4Container%:&amp;nbsp;%c4Technology%]&lt;/div&gt;&lt;br&gt;&lt;div&gt;&lt;font style=&quot;font-size: 11px&quot;&gt;&lt;font&gt;%c4Description%&lt;/font&gt;&lt;/font&gt;&lt;/div&gt;" id="X4uhM3XwHNd5rl-uWIdL-2">
          <mxCell style="shape=hexagon;size=50;perimeter=hexagonPerimeter2;whiteSpace=wrap;html=1;fixedSize=1;rounded=1;labelBackgroundColor=none;fontSize=12;align=center;strokeColor=#E6E6E6;metaEdit=1;points=[[0.5,0,0],[1,0.25,0],[1,0.5,0],[1,0.75,0],[0.5,1,0],[0,0.75,0],[0,0.5,0],[0,0.25,0]];resizable=0;fillColor=#004C99;fontColor=#FFFFFF;" parent="1" vertex="1">
            <mxGeometry x="487" y="596" width="200" height="170" as="geometry" />
          </mxCell>
        </object>
        <mxCell id="X4uhM3XwHNd5rl-uWIdL-3" value="" style="endArrow=block;html=1;rounded=0;endFill=1;strokeColor=#4D4D4D;" parent="1" source="Lqu-rLG3yjOHErJIZXPH-1" edge="1">
          <mxGeometry width="50" height="50" relative="1" as="geometry">
            <mxPoint x="240.4000000000001" y="497.6399999999999" as="sourcePoint" />
            <mxPoint x="523" y="624" as="targetPoint" />
          </mxGeometry>
        </mxCell>
        <mxCell id="X4uhM3XwHNd5rl-uWIdL-4" value="Solictar recurso[token]" style="edgeLabel;html=1;align=center;verticalAlign=middle;resizable=0;points=[];labelBackgroundColor=none;" parent="X4uhM3XwHNd5rl-uWIdL-3" vertex="1" connectable="0">
          <mxGeometry x="-0.149" y="-2" relative="1" as="geometry">
            <mxPoint x="69" y="-7" as="offset" />
          </mxGeometry>
        </mxCell>
        <mxCell id="X4uhM3XwHNd5rl-uWIdL-5" value="" style="endArrow=classic;html=1;rounded=0;dashed=1;dashPattern=8 8;exitX=0.1;exitY=0.324;exitDx=0;exitDy=0;exitPerimeter=0;strokeColor=#4D4D4D;" parent="1" source="X4uhM3XwHNd5rl-uWIdL-2" edge="1">
          <mxGeometry width="50" height="50" relative="1" as="geometry">
            <mxPoint x="515" y="485" as="sourcePoint" />
            <mxPoint x="189" y="471" as="targetPoint" />
            <Array as="points" />
          </mxGeometry>
        </mxCell>
        <mxCell id="X4uhM3XwHNd5rl-uWIdL-12" value="recurso" style="edgeLabel;html=1;align=center;verticalAlign=middle;resizable=0;points=[];labelBackgroundColor=none;" parent="X4uhM3XwHNd5rl-uWIdL-5" vertex="1" connectable="0">
          <mxGeometry x="0.026" relative="1" as="geometry">
            <mxPoint x="-6" y="17" as="offset" />
          </mxGeometry>
        </mxCell>
        <object placeholders="1" c4Type="POC.api.cartao" c4Container="Container" c4Technology=".NET API" c4Description="Resource Server" label="&lt;font style=&quot;font-size: 16px&quot;&gt;&lt;b&gt;%c4Type%&lt;/b&gt;&lt;/font&gt;&lt;div&gt;[%c4Container%:&amp;nbsp;%c4Technology%]&lt;/div&gt;&lt;br&gt;&lt;div&gt;&lt;font style=&quot;font-size: 11px&quot;&gt;&lt;font&gt;%c4Description%&lt;/font&gt;&lt;/font&gt;&lt;/div&gt;" id="X4uhM3XwHNd5rl-uWIdL-6">
          <mxCell style="shape=hexagon;size=50;perimeter=hexagonPerimeter2;whiteSpace=wrap;html=1;fixedSize=1;rounded=1;labelBackgroundColor=none;fontSize=12;align=center;strokeColor=#E6E6E6;metaEdit=1;points=[[0.5,0,0],[1,0.25,0],[1,0.5,0],[1,0.75,0],[0.5,1,0],[0,0.75,0],[0,0.5,0],[0,0.25,0]];resizable=0;fillColor=#004C99;fontColor=#FFFFFF;" parent="1" vertex="1">
            <mxGeometry x="469" y="103" width="200" height="170" as="geometry" />
          </mxCell>
        </object>
        <mxCell id="X4uhM3XwHNd5rl-uWIdL-7" value="" style="endArrow=block;html=1;rounded=0;endFill=1;strokeColor=#4D4D4D;entryX=0.035;entryY=0.571;entryDx=0;entryDy=0;entryPerimeter=0;" parent="1" source="Lqu-rLG3yjOHErJIZXPH-1" target="X4uhM3XwHNd5rl-uWIdL-6" edge="1">
          <mxGeometry width="50" height="50" relative="1" as="geometry">
            <mxPoint x="222.20000000000005" y="390.53999999999996" as="sourcePoint" />
            <mxPoint x="473" y="186" as="targetPoint" />
          </mxGeometry>
        </mxCell>
        <mxCell id="X4uhM3XwHNd5rl-uWIdL-8" value="Solictar recurso[token]" style="edgeLabel;html=1;align=center;verticalAlign=middle;resizable=0;points=[];labelBackgroundColor=none;" parent="X4uhM3XwHNd5rl-uWIdL-7" vertex="1" connectable="0">
          <mxGeometry x="-0.149" y="-2" relative="1" as="geometry">
            <mxPoint x="55" y="-102" as="offset" />
          </mxGeometry>
        </mxCell>
        <mxCell id="X4uhM3XwHNd5rl-uWIdL-9" value="" style="endArrow=classic;html=1;rounded=0;dashed=1;dashPattern=8 8;entryX=1;entryY=0.409;entryDx=0;entryDy=0;entryPerimeter=0;strokeColor=#4D4D4D;exitX=0.115;exitY=0.724;exitDx=0;exitDy=0;exitPerimeter=0;" parent="1" source="X4uhM3XwHNd5rl-uWIdL-6" target="Lqu-rLG3yjOHErJIZXPH-1" edge="1">
          <mxGeometry width="50" height="50" relative="1" as="geometry">
            <mxPoint x="505" y="217" as="sourcePoint" />
            <mxPoint x="248" y="417" as="targetPoint" />
            <Array as="points" />
          </mxGeometry>
        </mxCell>
        <mxCell id="X4uhM3XwHNd5rl-uWIdL-10" value="recurso" style="edgeLabel;html=1;align=center;verticalAlign=middle;resizable=0;points=[];labelBackgroundColor=none;" parent="X4uhM3XwHNd5rl-uWIdL-9" vertex="1" connectable="0">
          <mxGeometry x="-0.2335" y="-3" relative="1" as="geometry">
            <mxPoint x="16" y="13" as="offset" />
          </mxGeometry>
        </mxCell>
        <object placeholders="1" c4Name="Usuário Comum" c4Type="Person" c4Description="Developer Client" label="&lt;b&gt;%c4Name%&lt;/b&gt;&lt;div&gt;[%c4Type%]&lt;/div&gt;&lt;br&gt;&lt;div&gt;%c4Description%&lt;/div&gt;" id="x1ff1kiWAO7r3XLYhIyg-1">
          <mxCell style="html=1;dashed=0;whitespace=wrap;shape=mxgraph.c4.person;align=center;metaEdit=1;points=[[0.5,0,0],[1,0.5,0],[1,0.75,0],[0.75,1,0],[0.5,1,0],[0.25,1,0],[0,0.75,0],[0,0.5,0]];metaData={&quot;c4Type&quot;:{&quot;editable&quot;:false}};fillColor=#CCCCCC;" vertex="1" parent="1">
            <mxGeometry x="65" y="87" width="166" height="140" as="geometry" />
          </mxCell>
        </object>
        <object placeholders="1" c4Name="Aplicação Cliente" c4Type="Container" c4Technology="APIs, Microservices,..." c4Description="Clients" label="&lt;b&gt;%c4Name%&lt;/b&gt;&lt;div&gt;[%c4Type%: %c4Technology%]&lt;/div&gt;&lt;br&gt;&lt;div&gt;%c4Description%&lt;/div&gt;" id="Lqu-rLG3yjOHErJIZXPH-1">
          <mxCell style="rounded=1;whiteSpace=wrap;html=1;labelBackgroundColor=none;fontColor=#ffffff;align=center;arcSize=10;strokeColor=#78A8D8;metaEdit=1;metaData={&quot;c4Type&quot;:{&quot;editable&quot;:false}};points=[[0.25,0,0],[0.5,0,0],[0.75,0,0],[1,0.25,0],[1,0.5,0],[1,0.75,0],[0.75,1,0],[0.5,1,0],[0.25,1,0],[0,0.75,0],[0,0.5,0],[0,0.25,0]];fillColor=#004C99;" vertex="1" parent="1">
            <mxGeometry x="64" y="361" width="167" height="110" as="geometry" />
          </mxCell>
        </object>
        <mxCell id="Lqu-rLG3yjOHErJIZXPH-2" value="" style="endArrow=classic;html=1;rounded=0;dashed=1;dashPattern=8 8;strokeColor=#4D4D4D;entryX=1;entryY=0.75;entryDx=0;entryDy=0;entryPerimeter=0;" edge="1" parent="1" source="X4uhM3XwHNd5rl-uWIdL-1" target="Lqu-rLG3yjOHErJIZXPH-1">
          <mxGeometry width="50" height="50" relative="1" as="geometry">
            <mxPoint x="517" y="667.0799999999999" as="sourcePoint" />
            <mxPoint x="194" y="481" as="targetPoint" />
            <Array as="points" />
          </mxGeometry>
        </mxCell>
        <mxCell id="Lqu-rLG3yjOHErJIZXPH-3" value="recurso" style="edgeLabel;html=1;align=center;verticalAlign=middle;resizable=0;points=[];labelBackgroundColor=none;" vertex="1" connectable="0" parent="Lqu-rLG3yjOHErJIZXPH-2">
          <mxGeometry x="0.026" relative="1" as="geometry">
            <mxPoint x="-6" y="17" as="offset" />
          </mxGeometry>
        </mxCell>
      </root>
    </mxGraphModel>
  </diagram>
  <diagram id="LzAWiSu5K5A964BHP_aW" name="Auditoria Log">
    <mxGraphModel dx="1422" dy="848" grid="0" gridSize="10" guides="1" tooltips="1" connect="1" arrows="1" fold="1" page="1" pageScale="1" pageWidth="1169" pageHeight="827" background="none" math="0" shadow="0">
      <root>
        <mxCell id="0" />
        <mxCell id="1" parent="0" />
        <mxCell id="bpXOBPcmS9yx_TQCzJA8-16" value="" style="rounded=1;whiteSpace=wrap;html=1;strokeColor=#000000;fontColor=#000000;fillColor=none;arcSize=10;" vertex="1" parent="1">
          <mxGeometry x="29" y="138" width="662" height="590" as="geometry" />
        </mxCell>
        <object placeholders="1" c4Type="Relationship" id="bpXOBPcmS9yx_TQCzJA8-2">
          <mxCell style="endArrow=blockThin;html=1;fontSize=10;strokeWidth=1;endFill=1;strokeColor=#FFFFFF;elbow=vertical;metaEdit=1;endSize=14;startSize=14;jumpStyle=arc;jumpSize=16;rounded=0;edgeStyle=orthogonalEdgeStyle;dashed=1;entryX=0.5;entryY=0;entryDx=0;entryDy=0;entryPerimeter=0;" edge="1" parent="1" source="bpXOBPcmS9yx_TQCzJA8-13" target="bpXOBPcmS9yx_TQCzJA8-4">
            <mxGeometry width="240" relative="1" as="geometry">
              <mxPoint x="526.4100000000001" y="463.94" as="sourcePoint" />
              <mxPoint x="530" y="503" as="targetPoint" />
              <Array as="points" />
            </mxGeometry>
          </mxCell>
        </object>
        <mxCell id="bpXOBPcmS9yx_TQCzJA8-3" value="Consultar Log" style="edgeLabel;html=1;align=center;verticalAlign=middle;resizable=0;points=[];labelBackgroundColor=none;" vertex="1" connectable="0" parent="bpXOBPcmS9yx_TQCzJA8-2">
          <mxGeometry x="0.3224" y="-3" relative="1" as="geometry">
            <mxPoint x="-44" y="-29" as="offset" />
          </mxGeometry>
        </mxCell>
        <object placeholders="1" c4Type="Database" c4Container="DB Server" c4Technology="PostgreSQL " c4Description="Identity Solution Database" label="&lt;font style=&quot;font-size: 16px&quot;&gt;&lt;b&gt;%c4Type%&lt;/b&gt;&lt;/font&gt;&lt;div&gt;[%c4Container%:&amp;nbsp;%c4Technology%]&lt;/div&gt;&lt;br&gt;&lt;div&gt;&lt;font style=&quot;font-size: 11px&quot;&gt;&lt;font color=&quot;#E6E6E6&quot;&gt;%c4Description%&lt;/font&gt;&lt;/div&gt;" id="bpXOBPcmS9yx_TQCzJA8-4">
          <mxCell style="shape=cylinder3;size=15;whiteSpace=wrap;html=1;boundedLbl=1;rounded=0;labelBackgroundColor=none;fillColor=#006666;fontSize=12;fontColor=#ffffff;align=center;metaEdit=1;points=[[0.5,0,0],[1,0.25,0],[1,0.5,0],[1,0.75,0],[0.5,1,0],[0,0.75,0],[0,0.5,0],[0,0.25,0]];resizable=0;" vertex="1" parent="1">
            <mxGeometry x="388" y="551" width="240" height="120" as="geometry" />
          </mxCell>
        </object>
        <mxCell id="bpXOBPcmS9yx_TQCzJA8-7" value="" style="endArrow=block;html=1;rounded=0;entryX=0;entryY=0.5;entryDx=0;entryDy=0;entryPerimeter=0;endFill=1;strokeWidth=2;exitX=1;exitY=0.75;exitDx=0;exitDy=0;exitPerimeter=0;strokeColor=#4D4D4D;" edge="1" parent="1" source="bpXOBPcmS9yx_TQCzJA8-14" target="bpXOBPcmS9yx_TQCzJA8-13">
          <mxGeometry width="50" height="50" relative="1" as="geometry">
            <mxPoint x="241.20000000000005" y="304.5999999999999" as="sourcePoint" />
            <mxPoint x="453" y="347" as="targetPoint" />
            <Array as="points" />
          </mxGeometry>
        </mxCell>
        <mxCell id="bpXOBPcmS9yx_TQCzJA8-8" value="Auditar Log" style="edgeLabel;html=1;align=center;verticalAlign=middle;resizable=0;points=[];labelBackgroundColor=none;" vertex="1" connectable="0" parent="bpXOBPcmS9yx_TQCzJA8-7">
          <mxGeometry x="-0.149" y="-2" relative="1" as="geometry">
            <mxPoint x="7" y="-22" as="offset" />
          </mxGeometry>
        </mxCell>
        <mxCell id="bpXOBPcmS9yx_TQCzJA8-11" value="" style="endArrow=block;html=1;rounded=0;endFill=1;entryX=0.5;entryY=0;entryDx=0;entryDy=0;entryPerimeter=0;strokeWidth=2;exitX=0.5;exitY=1;exitDx=0;exitDy=0;exitPerimeter=0;strokeColor=#4D4D4D;" edge="1" parent="1" source="bpXOBPcmS9yx_TQCzJA8-13" target="bpXOBPcmS9yx_TQCzJA8-4">
          <mxGeometry width="50" height="50" relative="1" as="geometry">
            <mxPoint x="547" y="386" as="sourcePoint" />
            <mxPoint x="774" y="291" as="targetPoint" />
            <Array as="points" />
          </mxGeometry>
        </mxCell>
        <object placeholders="1" c4Type="Auditor" c4Container="Container" c4Technology=".NET API" c4Description="Custom Identity Solution API" label="&lt;font style=&quot;font-size: 16px&quot;&gt;&lt;b&gt;%c4Type%&lt;/b&gt;&lt;/font&gt;&lt;div&gt;[%c4Container%:&amp;nbsp;%c4Technology%]&lt;/div&gt;&lt;br&gt;&lt;div&gt;&lt;font style=&quot;font-size: 11px&quot;&gt;&lt;font&gt;%c4Description%&lt;/font&gt;&lt;/font&gt;&lt;/div&gt;" id="bpXOBPcmS9yx_TQCzJA8-13">
          <mxCell style="shape=hexagon;size=50;perimeter=hexagonPerimeter2;whiteSpace=wrap;html=1;fixedSize=1;rounded=1;labelBackgroundColor=none;fontSize=12;align=center;metaEdit=1;points=[[0.5,0,0],[1,0.25,0],[1,0.5,0],[1,0.75,0],[0.5,1,0],[0,0.75,0],[0,0.5,0],[0,0.25,0]];resizable=0;fontColor=#FFFFFF;fillColor=#004C99;" vertex="1" parent="1">
            <mxGeometry x="408" y="220" width="200" height="170" as="geometry" />
          </mxCell>
        </object>
        <object placeholders="1" c4Name="Usuário Comum" c4Type="Person" c4Description="Security Manager" label="&lt;b&gt;%c4Name%&lt;/b&gt;&lt;div&gt;[%c4Type%]&lt;/div&gt;&lt;br&gt;&lt;div&gt;%c4Description%&lt;/div&gt;" id="bpXOBPcmS9yx_TQCzJA8-14">
          <mxCell style="html=1;dashed=0;whitespace=wrap;shape=mxgraph.c4.person;align=center;metaEdit=1;points=[[0.5,0,0],[1,0.5,0],[1,0.75,0],[0.75,1,0],[0.5,1,0],[0.25,1,0],[0,0.75,0],[0,0.5,0]];metaData={&quot;c4Type&quot;:{&quot;editable&quot;:false}};fillColor=#CCCCCC;" vertex="1" parent="1">
            <mxGeometry x="58" y="198" width="170" height="140" as="geometry" />
          </mxCell>
        </object>
      </root>
    </mxGraphModel>
  </diagram>
</mxfile>
